<svg width="960" height="960" viewBox="0 0 960 960" fill="none" xmlns="http://www.w3.org/2000/svg">
<g clip-path="url(#clip0_1_2)">
<mask id="mask0_1_2" style="mask-type:luminance" maskUnits="userSpaceOnUse" x="0" y="0" width="960" height="960">
<path d="M960 0H0V960H960V0Z" fill="white"/>
</mask>
<g mask="url(#mask0_1_2)">
<path fill-rule="evenodd" clip-rule="evenodd" d="M612.859 868.291C604.692 868.12 596.247 865.319 588.397 862.474C588.343 862.456 588.287 862.436 588.23 862.415L588.203 862.406C588.156 862.389 588.109 862.372 588.063 862.357C586.636 861.842 585.181 861.291 583.755 860.668C582.906 860.298 582.065 859.9 581.262 859.468C577.983 857.752 575.147 855.485 573.693 852.151C571.263 846.542 573.72 840.128 576.158 834.519C596.466 787.907 616.766 741.293 637.058 694.677C654.154 701.151 672.06 705.237 690.272 706.818L690.317 706.8C693.893 713.465 699.366 718.919 706.044 722.472C715.176 727.423 725.835 728.995 736.205 728.533C743.524 728.199 750.767 726.906 757.749 724.685C758.697 729.316 760.579 733.705 763.279 737.585C765.979 741.466 769.442 744.755 773.455 747.253C777.468 749.752 781.948 751.406 786.621 752.117C791.295 752.827 796.064 752.578 800.638 751.385C802.781 750.826 804.875 750.061 806.967 749.297C810.351 748.061 813.728 746.827 817.295 746.471C822.025 746.059 826.762 747.191 830.795 749.696C833.93 751.588 836.649 754.095 838.789 757.066C840.797 759.797 842.246 762.897 843.052 766.19C844.531 772.805 843.886 779.717 841.21 785.945C841.147 786.098 841.083 786.252 841.01 786.405C839.083 790.916 836.339 795.032 832.916 798.546C824.687 807.001 813.342 811.861 801.806 814.354C789.043 817.039 775.866 817.095 763.08 814.52C750.294 811.945 738.166 806.792 727.437 799.376C706.119 784.463 691.259 758.366 687.709 732.595C675.633 767.661 662.417 802.309 648.063 836.538C644.07 846.059 639.337 856.212 631.441 862.4C629.629 863.836 627.641 865.035 625.525 865.968C621.528 867.671 617.201 868.465 612.859 868.291ZM647.985 719.426C649.583 721.04 650.542 723.341 650.493 726.207V726.208C650.472 727.441 650.197 728.656 649.687 729.779C649.177 730.902 648.443 731.909 647.528 732.736C646.614 733.564 645.539 734.195 644.371 734.591C643.203 734.987 641.966 735.139 640.737 735.038C639.508 734.937 638.313 734.584 637.225 734.003C636.137 733.421 635.181 732.623 634.414 731.657C633.647 730.691 633.087 729.578 632.767 728.387C632.448 727.195 632.376 725.951 632.556 724.731C633.366 719.258 637.937 716.639 642.174 716.88C644.295 717.001 646.406 717.832 647.985 719.426ZM635.533 725.172C636.079 721.479 639.065 719.717 642.003 719.884C643.471 719.968 644.852 720.538 645.847 721.544C646.823 722.53 647.521 724.025 647.484 726.155C647.47 726.977 647.287 727.787 646.948 728.535C646.608 729.283 646.118 729.954 645.509 730.505C644.9 731.057 644.184 731.478 643.405 731.741C642.627 732.005 641.803 732.106 640.984 732.039C640.165 731.972 639.368 731.737 638.644 731.349C637.919 730.962 637.282 730.43 636.771 729.786C636.26 729.143 635.886 728.401 635.673 727.607C635.461 726.813 635.413 725.985 635.533 725.172ZM614.514 791.003C612.839 789.781 610.761 789.674 608.993 790.218C607.229 790.761 605.584 792.002 604.715 793.763C603.042 797.15 604.259 801.261 606.73 803.719C607.063 804.051 607.513 804.194 607.947 804.149C608.228 804.338 608.576 804.434 608.94 804.396C610.424 804.242 611.852 803.744 613.11 802.941C614.367 802.137 615.42 801.051 616.183 799.769L616.193 799.753L616.198 799.743L616.21 799.723C616.981 798.316 617.242 796.685 616.948 795.108C616.654 793.53 615.823 792.103 614.597 791.069C614.57 791.046 614.542 791.024 614.514 791.003ZM611.49 800.405C610.639 800.948 609.674 801.288 608.671 801.399C607.038 799.633 606.471 797.002 607.413 795.095C607.868 794.173 608.795 793.427 609.878 793.094C610.937 792.769 611.96 792.888 612.698 793.404C613.371 793.988 613.827 794.783 613.99 795.659C614.155 796.545 614.012 797.461 613.584 798.253C613.061 799.122 612.345 799.859 611.49 800.405ZM629.655 823.043C631.28 822.51 633.047 822.615 634.597 823.336C634.886 823.471 635.113 823.685 635.262 823.941C635.557 823.968 635.847 824.082 636.091 824.288C637.4 825.388 638.242 826.945 638.445 828.643C638.649 830.341 638.199 832.053 637.187 833.431C636.175 834.81 634.677 835.752 632.996 836.067C631.315 836.382 629.578 836.046 628.135 835.127C626.693 834.208 625.654 832.775 625.229 831.119C624.804 829.463 625.025 827.707 625.847 826.207C626.669 824.707 628.03 823.576 629.655 823.043ZM633.824 826.199C633.656 826.183 633.489 826.139 633.328 826.064C632.47 825.665 631.492 825.607 630.593 825.902C629.694 826.197 628.941 826.823 628.486 827.653C628.031 828.483 627.909 829.455 628.144 830.371C628.379 831.288 628.954 832.081 629.752 832.589C630.55 833.098 631.512 833.284 632.442 833.11C633.372 832.935 634.201 832.414 634.761 831.651C635.321 830.888 635.57 829.941 635.457 829.001C635.345 828.061 634.879 827.2 634.155 826.591C634.019 826.477 633.908 826.344 633.824 826.199ZM738.231 735.179C736.586 734.281 734.659 734.047 732.847 734.526C731.035 735.004 729.475 736.158 728.488 737.752C727.501 739.345 727.162 741.255 727.54 743.091C727.918 744.927 728.985 746.548 730.522 747.621C732.058 748.694 733.947 749.138 735.801 748.861C737.655 748.585 739.332 747.608 740.488 746.133C741.644 744.658 742.191 742.796 742.016 740.93C741.842 739.064 740.959 737.335 739.55 736.1C739.333 735.911 739.078 735.794 738.814 735.749C738.68 735.516 738.483 735.317 738.231 735.179ZM736.789 737.82C736.938 737.901 737.095 737.955 737.254 737.982C737.334 738.122 737.438 738.251 737.566 738.363C738.397 739.091 738.917 740.11 739.02 741.21C739.123 742.31 738.801 743.407 738.119 744.277C737.438 745.147 736.449 745.722 735.357 745.885C734.264 746.048 733.15 745.787 732.245 745.154C731.339 744.522 730.71 743.566 730.487 742.484C730.264 741.402 730.464 740.276 731.046 739.336C731.628 738.397 732.547 737.717 733.616 737.435C734.684 737.153 735.819 737.291 736.789 737.82ZM650.919 776.263C649.332 777.338 647.412 777.804 645.509 777.576C643.607 777.348 641.85 776.441 640.562 775.023C639.275 773.604 638.542 771.768 638.499 769.853C638.455 767.937 639.104 766.07 640.327 764.595C642.205 762.331 644.479 761.363 646.738 761.51C648.934 761.653 650.887 762.833 652.25 764.413C653.614 765.994 654.498 768.102 654.419 770.28C654.339 772.517 653.244 774.688 650.919 776.263ZM642.644 766.514C643.992 764.889 645.374 764.437 646.543 764.513C647.776 764.593 649.023 765.278 649.972 766.378C650.92 767.478 651.459 768.866 651.412 770.171C651.367 771.417 650.789 772.716 649.232 773.772L642.644 766.514ZM649.232 773.772C648.246 774.44 647.05 774.73 645.867 774.588C644.684 774.446 643.591 773.883 642.79 773C641.99 772.118 641.534 770.976 641.507 769.785C641.48 768.593 641.883 767.433 642.643 766.515L649.232 773.772ZM743.919 782.263C746.244 780.688 747.339 778.517 747.419 776.28C747.498 774.102 746.614 771.994 745.25 770.413C743.887 768.833 741.934 767.653 739.738 767.51C737.479 767.363 735.205 768.33 733.327 770.594C732.104 772.069 731.455 773.937 731.499 775.853C731.542 777.768 732.275 779.604 733.562 781.023C734.85 782.441 736.607 783.348 738.509 783.576C740.412 783.804 742.332 783.338 743.919 782.263ZM739.543 770.513C738.374 770.437 736.992 770.889 735.644 772.514L742.231 779.772L735.643 772.515C734.883 773.433 734.48 774.593 734.507 775.785C734.534 776.976 734.99 778.118 735.79 779C736.591 779.883 737.684 780.446 738.867 780.588C740.05 780.73 741.245 780.44 742.231 779.772C743.788 778.716 744.367 777.417 744.412 776.171C744.459 774.866 743.92 773.478 742.972 772.378C742.023 771.278 740.776 770.593 739.543 770.513ZM792.06 798.619C790.474 799.693 788.552 800.159 786.65 799.931C784.747 799.703 782.991 798.797 781.703 797.378C780.415 795.959 779.682 794.124 779.639 792.208C779.596 790.293 780.245 788.426 781.467 786.95H781.468C783.345 784.686 785.62 783.718 787.879 783.865C790.075 784.008 792.028 785.188 793.391 786.769C794.754 788.35 795.638 790.457 795.56 792.635C795.479 794.873 794.384 797.044 792.06 798.619ZM783.784 788.87C785.132 787.245 786.514 786.792 787.684 786.868C788.916 786.948 790.163 787.634 791.112 788.734C792.06 789.833 792.6 791.222 792.553 792.527C792.508 793.772 791.93 795.072 790.372 796.127L783.784 788.87ZM790.372 796.127C789.385 796.795 788.191 797.085 787.008 796.944C785.824 796.802 784.732 796.238 783.931 795.356C783.13 794.473 782.674 793.332 782.647 792.14C782.62 790.949 783.024 789.788 783.784 788.87L790.372 796.127ZM818.763 760.572C820.576 760.107 822.496 760.357 824.127 761.269C824.534 761.211 824.963 761.32 825.303 761.605C826.669 762.75 827.569 764.354 827.834 766.115C828.099 767.877 827.712 769.675 826.744 771.171C825.777 772.667 824.296 773.757 822.581 774.238C820.865 774.718 819.033 774.555 817.43 773.779C817.418 773.773 817.407 773.768 817.396 773.762C817.386 773.757 817.376 773.752 817.366 773.746C815.689 772.834 814.43 771.309 813.854 769.489C813.277 767.67 813.427 765.698 814.272 763.986C814.29 763.95 814.31 763.914 814.331 763.879C815.316 762.236 816.908 761.048 818.763 760.572ZM824.859 766.564C824.719 765.637 824.28 764.784 823.614 764.132C823.315 764.159 823.005 764.096 822.725 763.933C821.754 763.368 820.6 763.207 819.512 763.486C818.443 763.761 817.523 764.438 816.943 765.374C816.466 766.375 816.386 767.521 816.722 768.58C817.06 769.647 817.794 770.543 818.772 771.086C819.708 771.529 820.772 771.619 821.769 771.34C822.778 771.058 823.649 770.416 824.218 769.537C824.787 768.657 825.015 767.6 824.859 766.564Z" fill="#fff"/>
<path d="M514.9 733.89C493.21 736.4 454.263 736.959 430.673 733.89C425.397 733.204 421.015 730.08 421.015 725.379C421.039 724.169 421.315 722.977 421.824 721.879C422.334 720.782 423.066 719.802 423.974 719.001C424.882 718.201 425.946 717.599 427.099 717.232C428.252 716.864 429.469 716.741 430.673 716.869C474.528 722.728 489.41 721.334 514.9 716.869C520.131 715.953 524.558 720.679 524.558 725.379C524.556 730.08 520.186 733.278 514.9 733.89Z" fill="url(#paint0_linear_1_2)"/>
<path d="M524.667 704.99C498.8 708.013 452.352 708.685 424.219 704.99C417.927 704.164 412.702 700.404 412.702 694.748C412.702 689.091 417.93 683.657 424.219 684.505C476.519 691.558 494.269 689.879 524.667 684.505C530.906 683.405 536.185 689.091 536.185 694.748C536.185 700.4 530.973 704.253 524.667 704.99Z" fill="url(#paint1_linear_1_2)"/>
<path d="M526.447 675.526C500.178 678.549 453.009 679.226 424.44 675.526C418.049 674.7 412.74 670.94 412.74 665.284C412.775 663.822 413.113 662.384 413.732 661.06C414.352 659.736 415.24 658.555 416.34 657.592C417.44 656.629 418.728 655.905 420.122 655.466C421.517 655.027 422.987 654.882 424.44 655.041C477.553 662.094 495.577 660.415 526.447 655.041C532.783 653.941 538.147 659.627 538.147 665.284C538.144 670.94 532.852 674.789 526.447 675.526Z" fill="url(#paint2_linear_1_2)"/>
<path d="M496.192 252.948C422.646 248.363 358.923 310.463 353.861 391.648C348.799 472.833 404.316 542.372 477.861 546.958C504.657 548.556 531.249 541.427 553.652 526.639C550.189 516.347 550.608 504.379 555.963 495.049C554.263 488.427 548.857 483.494 544.892 478.167C541.94 474.202 537.506 468.709 537.559 464.458C537.564 463.983 537.693 463.518 537.933 463.108C538.173 462.698 538.516 462.358 538.928 462.121C539.34 461.884 539.807 461.76 540.282 461.759C540.757 461.758 541.224 461.882 541.636 462.117C545.96 464.392 549.861 467.39 553.171 470.982C554.332 472.263 555.366 473.654 556.257 475.135C555.185 472.928 553.914 470.85 553.302 469.685C550.963 465.239 547.566 461.259 545.58 456.685C544.203 453.515 547.18 451.438 549.567 454.307C550.48 455.267 551.331 456.283 552.116 457.349C552.479 457.562 552.789 457.852 553.023 458.2C555.872 462.356 559.38 466.428 561.681 470.779C561.491 470.062 560.959 469.039 560.726 468.335C558.691 462.221 554.368 456.497 554.296 449.897C554.274 447.897 557.111 446.765 558.852 447.875C564.635 451.568 567.539 458.762 569.103 465.175C569.728 467.735 569.489 471.109 569.652 473.919C575.144 470.474 582.038 466.68 588.173 468.649C589.445 469.057 590.621 470.579 590.066 471.982C588.086 476.982 581.93 479.926 576.773 482.167C582.158 482.709 588.756 485.28 592.199 489.207C608.829 465.327 618.518 437.308 620.192 408.256C625.254 327.069 569.737 257.534 496.192 252.948ZM446.965 422.525C442.424 432.925 433.957 440.64 426.296 448.738C426.069 448.995 425.79 449.202 425.478 449.345C425.166 449.487 424.828 449.564 424.485 449.568C424.142 449.573 423.802 449.505 423.486 449.371C423.171 449.236 422.887 449.037 422.652 448.786C421.63 449.926 420.573 451.036 419.44 452.086C416.884 454.456 413.04 450.63 415.608 448.253C415.856 448.023 416.094 447.782 416.337 447.546C416.041 447.284 415.818 446.95 415.69 446.576C415.562 446.202 415.534 445.801 415.607 445.412C415.032 445.358 414.484 445.137 414.033 444.776C413.581 444.415 413.244 443.931 413.063 443.381C412.618 443.457 412.161 443.421 411.734 443.276C411.306 443.131 410.921 442.881 410.614 442.55C410.307 442.219 410.087 441.817 409.975 441.379C409.862 440.942 409.86 440.484 409.969 440.045C410.105 439.529 410.269 439.024 410.408 438.512C408.708 439.756 405.801 438.678 405.999 436.436C405.918 436.322 405.844 436.202 405.779 436.076C405.615 435.734 405.443 435.397 405.279 435.058C403.763 435.879 401.838 434.878 401.587 432.558C401.043 427.532 398.338 423.115 398.559 417.893C398.693 414.709 401.71 414.928 402.766 417.73V417.738C403.311 417.859 403.796 418.166 404.138 418.606C406.063 420.906 408.976 424.336 410.67 426.818C413.423 419.466 416.034 410.958 422.214 407.182C425.201 405.357 427.922 410.046 424.949 411.862C424.911 411.886 424.874 411.913 424.836 411.937C423.118 416.5 421.984 421.28 420.343 425.877C420.261 426.113 420.177 426.346 420.091 426.577C423.622 421.977 427.563 417.707 431.867 413.82C434.503 411.56 438.351 415.378 435.7 417.653C435.413 417.9 435.135 418.153 434.855 418.405C434.772 418.967 434.51 419.486 434.106 419.885C431.185 422.91 429.546 426.569 427.487 430.243C432.129 425.02 437.11 420.551 443.903 418.543C446.379 417.812 447.849 420.499 446.965 422.525Z" fill="url(#paint3_linear_1_2)"/>
<path d="M865.036 776.7C863.947 775.267 862.771 773.904 861.514 772.617C860.882 771.958 860.231 771.317 859.572 770.684C853.57 764.921 846.594 760.269 838.967 756.945L838.795 757.071C836.654 754.1 833.935 751.593 830.8 749.7L830.917 749.5C833.218 746.978 835.801 744.73 838.617 742.8C841.462 740.864 844.889 739.97 848.317 740.271C852.917 740.871 856.617 744.21 859.898 747.48C869.001 756.526 877.416 766.239 885.072 776.539C887.087 779.239 889.101 782.113 889.716 785.428C890.429 789.312 889.116 793.25 887.837 796.991C886.175 801.824 884.043 807.18 879.346 809.191C875.046 811.025 870.087 809.372 865.904 807.277C861.587 805.107 857.516 802.478 853.763 799.436L854.188 798.922C857.031 799.752 860.083 799.485 862.74 798.176C865.396 796.867 867.466 794.609 868.541 791.849C869.605 788.371 869.331 784.621 867.774 781.334C867.037 779.692 866.119 778.137 865.036 776.7Z" fill="url(#paint4_linear_1_2)"/>
<path d="M701.076 497.519L700.815 497.808C695.223 503.914 695.305 513.534 698.349 521.239C701.393 528.944 706.858 535.394 711.419 542.313C713.542 545.538 715.529 549.476 714.906 553.135C714.798 553.779 714.61 554.407 714.346 555.005C713.625 556.544 712.441 557.82 710.959 558.654C709.787 559.348 708.493 559.811 707.147 560.018C706.416 560.136 705.675 560.19 704.934 560.18C702.622 560.109 700.333 559.695 698.141 558.952C692.193 557.119 686.749 553.936 682.234 549.652C678.659 546.283 675.945 542.103 674.321 537.466C670.753 526.966 674.61 513.809 684.375 508.543C682.052 505.282 680.45 501.564 679.676 497.636C678.902 493.708 678.973 489.66 679.885 485.761C681.885 478.029 687.97 471.327 695.675 469.213C703.38 467.099 712.275 469.249 716.785 475.835L716.803 475.862C720.828 472.454 725.575 470.006 730.686 468.704C735.796 467.402 741.136 467.28 746.301 468.348C751.465 469.415 756.319 471.644 760.495 474.866C764.67 478.088 768.058 482.217 770.4 486.942C775.35 496.897 775.242 508.477 776.027 519.561C776.812 530.645 779.018 542.55 787.111 550.174C800.489 562.765 823.18 557.974 838.554 568.032C847.641 573.984 852.916 584.49 855.075 595.15C857.234 605.81 856.656 616.783 856.43 627.65C856.204 638.517 856.349 649.61 859.854 659.898C863.359 670.186 870.754 679.689 881.063 683.131C891.372 686.573 907.386 682.779 911.649 672.779C909.095 680.263 904.741 687.005 898.971 692.412C893.2 697.819 886.189 701.725 878.554 703.786C870.92 705.848 862.896 706.002 855.188 704.236C847.48 702.469 840.324 698.835 834.349 693.654C824.828 685.389 819.091 673.998 814.855 661.954C813.022 656.769 811.468 651.454 810.013 646.228C805.171 628.848 800.313 610.556 787.873 597.485C778.189 587.313 764.712 581.235 753.122 573.33C749.654 571.027 746.388 568.435 743.357 565.58C740.9 563.264 738.698 560.689 736.79 557.902C736.483 557.451 736.19 557.002 735.904 556.538C727.187 542.401 727.946 522.926 737.918 509.602L737.9 509.512C732.627 510.776 727.124 510.723 721.876 509.358C714.067 507.365 707.1 502.92 701.076 497.519Z" fill="url(#paint5_linear_1_2)"/>
<path d="M709.107 579.359C706.542 573.307 705.507 566.731 704.934 560.182C705.675 560.191 706.415 560.136 707.147 560.019C708.493 559.812 709.787 559.349 710.959 558.655C711.723 562.774 712.9 566.805 714.473 570.687C716.083 574.634 718.855 577.998 722.421 580.334C726.044 582.52 730.777 583.107 734.544 581.183C737.233 579.675 739.35 577.322 740.569 574.489C741.769 571.674 742.656 568.736 743.215 565.727L743.35 565.582C746.379 568.437 749.646 571.03 753.115 573.332L753.097 573.359C750.921 581.3 748.21 589.98 741.21 594.298C735.501 597.83 727.903 597.478 721.987 594.325C716.071 591.172 711.726 585.537 709.107 579.359Z" fill="#fff"/>
<path d="M600.493 886.15C601.836 885.124 603.075 883.968 604.193 882.699C606.008 880.609 607.601 878.335 608.945 875.915C610.363 873.44 611.619 870.856 612.856 868.291C617.2 868.466 621.529 867.673 625.529 865.97C627.645 865.037 629.633 863.838 631.445 862.402C632.719 868.616 633.92 874.344 633.676 880.685C633.432 887.026 632.465 894.659 627.154 898.128C620.605 902.409 604.154 905.372 593.822 905.706C587.074 905.914 586.595 905.083 580.01 903.574C573.425 902.065 568.321 899.329 561.374 895.119C555.594 891.619 559.089 880.269 563.434 875.093C566.325 871.652 568.944 871.047 572.882 868.86C576.82 866.673 580.722 864 581.229 859.529L581.256 859.466C582.056 859.899 582.9 860.297 583.749 860.666L583.135 862.545C583.758 863.385 584.372 864.234 584.995 865.073C583.076 866.567 581.347 868.29 579.846 870.204C578.865 871.495 578.077 872.922 577.507 874.44C576.647 876.587 576.427 878.937 576.875 881.206C578.075 886.725 583.948 890.411 589.594 890.306C593.577 890.117 597.395 888.661 600.493 886.15Z" fill="url(#paint6_linear_1_2)"/>
<path d="M588.064 862.356C588.172 862.392 588.29 862.437 588.398 862.473C587.259 863.322 586.113 864.181 584.998 865.073C584.375 864.233 583.76 863.384 583.137 862.545L583.751 860.666C585.182 861.291 586.637 861.841 588.064 862.356Z" fill="url(#paint7_linear_1_2)"/>
<path d="M302.754 571.021C303.494 598.193 304.461 631.986 305.21 659.148C305.418 666.717 305.463 674.856 301.2 681.117C299.839 683.075 298.147 684.78 296.2 686.157C292.353 688.994 287.628 690.819 283.039 692.345C265.009 698.305 246.247 701.77 227.277 702.645C221.271 702.916 215.164 702.916 209.347 701.407C208.579 701.207 207.811 700.974 207.053 700.712C202.031 699.147 197.659 695.981 194.605 691.697C188.426 682.439 191.305 670.054 194.894 659.513C201.359 640.507 209.377 622.065 218.868 604.375C196.746 615.531 178.906 635.395 173.378 659.549C171.643 667.136 170.351 675.925 163.803 680.136C160.658 681.998 156.997 682.799 153.361 682.421C150.138 682.163 146.944 681.624 143.813 680.813C139.947 679.901 135.782 678.753 132.495 676.649C130.445 675.402 128.781 673.61 127.689 671.473C125.531 667.064 126.551 661.825 127.852 657.092C134.774 632.173 148.359 609.613 167.145 591.838C185.853 574.205 212.245 560.691 237.387 555.326L237.377 555.262C238.695 554.968 239.985 554.563 241.234 554.052C250.782 550.448 260.327 546.848 269.869 543.252C272.834 542.032 275.683 540.544 278.378 538.808C280.636 537.385 283.008 536.152 285.469 535.122C291.349 532.792 297.122 530.163 302.741 527.264C308.323 524.391 313.757 521.251 319.041 517.843C324.407 514.383 329.595 510.673 334.605 506.714C354.566 491.006 371.283 471.567 383.826 449.48C386.093 445.452 388.253 441.305 391.305 437.836C393.977 434.603 397.636 432.337 401.721 431.386C402.175 431.296 402.633 431.233 403.094 431.197C409.553 430.664 415.361 434.783 420.519 438.703C423.485 440.825 426.244 443.224 428.757 445.866C430.696 447.936 432.168 450.397 433.075 453.083C434.975 459 433.246 465.441 431.015 471.24C420.609 498.293 399.327 520.055 375.136 536.016C366.354 541.759 357.225 546.954 347.802 551.571C333.186 558.817 317.975 565.005 302.754 571.021Z" fill="#fff"/>
<path d="M412.632 876.538C416.941 882.21 413.897 890.838 408.46 895.453C399.46 903.086 386.454 903.059 374.66 902.634C363.667 902.228 352.673 901.828 341.68 901.434C337.019 901.262 331.996 900.964 328.38 898.01C322.951 893.556 322.98 885.689 323.637 878.697L323.682 878.634C330.736 883.23 339.109 885.37 347.503 884.722C360.003 883.511 371.721 873.955 374.169 861.841L374.692 861.941C383.825 864.831 392.959 867.725 402.092 870.621C406 871.859 410.157 873.277 412.632 876.538Z" fill="#fff"/>
<path d="M280.289 530.246C281.572 533.02 280.398 536.416 278.266 538.611L278.383 538.8C275.686 540.536 272.838 542.023 269.874 543.245C260.326 546.849 250.781 550.449 241.239 554.045C239.989 554.555 238.699 554.96 237.383 555.255C236.812 555.376 236.231 555.443 235.648 555.455C234.68 555.515 233.713 555.33 232.837 554.916C231.96 554.503 231.203 553.874 230.635 553.089C229.424 551.156 230.012 548.508 231.42 546.702C232.948 544.994 234.807 543.614 236.885 542.646C238.403 541.816 239.911 540.946 241.42 540.072V540.061C244.72 538.155 248.02 536.222 251.438 534.661C255.178 532.944 259.138 532.24 262.838 530.216C263.338 529.945 263.823 529.674 264.32 529.416C266.646 527.981 269.214 526.983 271.898 526.471C275.149 526.027 278.908 527.265 280.289 530.246Z" fill="url(#paint8_linear_1_2)"/>
<path d="M262.565 458.424C262.378 458.691 262.211 458.971 262.065 459.263C262.231 458.984 262.4 458.7 262.565 458.424ZM266.079 453.853C264.695 455.183 263.516 456.712 262.579 458.388C263.74 456.662 266 454.2 266.079 453.853ZM266.079 453.844C266.341 453.618 266.612 453.401 266.892 453.194C268.992 451.667 272.041 451.116 274.192 452.589C277.101 454.589 276.84 459.255 274.599 461.974C272.358 464.693 268.836 465.939 265.493 467.074C263.299 467.814 261.093 468.564 258.893 469.304L245.533 473.83C239.499 475.872 232.968 478.302 229.68 483.758C227.041 488.13 227.07 493.695 228.58 498.572C230.09 503.449 232.925 507.772 235.725 512.05C235.881 513.563 236.158 515.062 236.556 516.531L236.448 516.54C236.384 519.476 235.748 523.63 233.196 525.076C232.283 525.556 231.229 525.7 230.22 525.482C229.211 525.264 228.31 524.698 227.676 523.883C227.266 523.307 227.011 522.635 226.936 521.932C227.849 520.676 228.517 519.222 228.228 518.256C227.744 518.727 227.375 519.304 227.151 519.942C226.927 520.58 226.853 521.261 226.936 521.932C226.328 522.813 225.566 523.577 224.687 524.19C223.905 524.646 222.997 524.838 222.096 524.739C221.196 524.64 220.352 524.254 219.687 523.639C219.103 522.999 218.675 522.233 218.437 521.4C218.199 520.567 218.157 519.69 218.314 518.839C218.439 518.033 218.657 517.245 218.964 516.49C219.321 516.18 219.606 515.798 219.8 515.368C219.994 514.938 220.093 514.471 220.09 514C219.69 514.812 219.29 515.644 218.961 516.492C218.33 517.165 217.539 517.669 216.661 517.956C215.889 518.131 215.079 518.029 214.373 517.667C213.668 517.306 213.113 516.708 212.804 515.978C212.453 514.692 212.539 513.326 213.048 512.094C214.071 508.834 215.612 505.76 217.61 502.989C215.815 497.379 214.934 491.516 215 485.627C215.072 481.992 215.895 478.412 217.419 475.111C218.943 471.811 221.134 468.862 223.853 466.45C229.309 461.68 236.914 458.292 244.114 459.169C243.312 457.115 242.971 454.91 243.114 452.71C243.414 450.524 244.957 448.357 247.143 448.094C249.717 447.778 251.943 450.262 252.31 452.827C252.408 453.515 252.42 454.213 252.346 454.905C251.695 456.679 251.178 458.5 250.801 460.352C251.564 458.615 252.083 456.783 252.346 454.905C252.777 453.794 253.349 452.744 254.046 451.779C255.871 449.296 259.096 447.579 262.046 448.464C264.354 449.147 266.6 451.5 266.079 453.844Z" fill="#fff"/>
<path d="M93.2413 760.183C96.0852 758.715 99.158 757.74 102.328 757.301C111.09 756.117 119.807 759.054 128.551 760.309C146.941 762.858 165.59 758.002 180.401 746.809C187.662 741.281 193.754 734.367 198.325 726.469C202.896 718.57 205.855 709.844 207.031 700.794L207.058 700.704C207.816 700.966 208.584 701.204 209.352 701.404C215.169 702.913 221.276 702.913 227.282 702.642C246.252 701.768 265.014 698.303 283.044 692.342C287.633 690.816 292.356 688.991 296.205 686.154L296.214 686.172C315.906 725.231 335.327 763.672 355.014 802.736C362.123 816.836 369.286 831.072 373.107 846.393C374.205 850.301 374.717 854.35 374.625 858.407C374.567 859.562 374.416 860.709 374.173 861.839C371.726 873.953 360.01 883.509 347.508 884.72C339.114 885.367 330.741 883.227 323.687 878.632C319.135 875.78 315.105 872.169 311.772 867.955C305.043 859.437 301.141 849.094 297.338 838.932C284.005 803.242 269.76 759.892 256.418 724.203C249.744 753.269 233.167 779.108 209.528 797.289C185.89 815.471 156.662 824.864 126.857 823.856C117.869 823.556 108.8 822.275 100.534 818.756C95.9861 816.842 91.7887 814.183 88.1143 810.889C85.0828 808.167 82.5542 804.932 80.6443 801.332C78.4355 797.063 77.2363 792.343 77.1392 787.536C77.0421 782.73 78.0497 777.966 80.0843 773.61C82.9134 767.837 87.5269 763.129 93.2413 760.183Z" fill="url(#paint9_linear_1_2)"/>
<path d="M93.2411 760.183C87.5262 763.128 82.9113 767.835 80.0791 773.607C78.045 777.963 77.0377 782.727 77.1347 787.533C77.2318 792.339 78.4307 797.059 80.6391 801.329C82.5494 804.928 85.0779 808.163 88.1091 810.886C83.8191 814.229 79.5374 817.567 75.2641 820.9C67.7221 826.771 59.1761 832.968 49.6551 832.146C39.9711 831.315 31.8421 822.272 31.6551 812.553C31.4751 802.906 37.8891 794.541 43.9761 787.061C49.3961 780.413 54.8101 773.765 60.2181 767.116C63.3251 763.296 66.6311 759.321 71.1841 757.451C78.2181 754.547 86.1771 757.364 93.2411 760.183Z" fill="#fff"/>
<path d="M264 528.828C262.704 527.347 261.934 525.479 261.812 523.514C261.689 521.55 262.221 519.6 263.323 517.97C264.642 516.1 266.683 514.799 267.84 512.821C269.394 510.156 269.05 506.842 268.571 503.797C266.565 492.019 263.328 480.484 258.914 469.381" stroke="#fff" stroke-width="3.009" stroke-linecap="round" stroke-linejoin="round"/>
<path d="M226.93 521.926C227.004 522.63 227.259 523.302 227.67 523.877C228.304 524.692 229.204 525.258 230.213 525.476C231.222 525.694 232.276 525.551 233.19 525.07C235.745 523.625 236.378 519.47 236.442 516.534" stroke="#fff" stroke-width="3.009" stroke-linecap="round" stroke-linejoin="round"/>
<path d="M226.93 521.926C227.843 520.67 228.511 519.216 228.222 518.25C227.737 518.721 227.368 519.299 227.144 519.936C226.92 520.574 226.847 521.255 226.93 521.926Z" stroke="#fff" stroke-width="3.009" stroke-linecap="round" stroke-linejoin="round"/>
<path d="M218.963 516.488C218.656 517.243 218.438 518.032 218.313 518.837C218.156 519.689 218.198 520.566 218.436 521.398C218.674 522.231 219.102 522.997 219.686 523.637C220.35 524.253 221.195 524.638 222.095 524.737C222.995 524.836 223.903 524.643 224.686 524.187C225.564 523.575 226.326 522.81 226.935 521.929" stroke="#fff" stroke-width="3.009" stroke-linecap="round" stroke-linejoin="round"/>
<path d="M218.963 516.488C219.319 516.179 219.605 515.797 219.8 515.368C219.995 514.938 220.094 514.472 220.092 514C219.7 514.808 219.288 515.64 218.963 516.488Z" stroke="#fff" stroke-width="3.009" stroke-linecap="round" stroke-linejoin="round"/>
<path d="M217.617 502.983C215.619 505.755 214.078 508.829 213.055 512.088C212.545 513.32 212.46 514.687 212.812 515.972C213.12 516.702 213.676 517.3 214.381 517.662C215.086 518.024 215.895 518.126 216.668 517.95C217.544 517.663 218.333 517.16 218.963 516.486" stroke="#fff" stroke-width="3.009" stroke-linecap="round" stroke-linejoin="round"/>
<path d="M252.349 454.9C252.423 454.209 252.411 453.511 252.313 452.823C251.943 450.258 249.721 447.773 247.146 448.089C244.96 448.351 243.415 450.518 243.117 452.705C242.974 454.905 243.315 457.11 244.117 459.164C236.917 458.287 229.317 461.675 223.856 466.445C221.137 468.857 218.946 471.806 217.422 475.107C215.899 478.407 215.075 481.987 215.003 485.622C214.938 491.512 215.819 497.374 217.613 502.984" stroke="#fff" stroke-width="3.009" stroke-linecap="round" stroke-linejoin="round"/>
<path d="M252.349 454.899C251.697 456.674 251.181 458.494 250.804 460.346C251.566 458.61 252.086 456.777 252.349 454.899Z" stroke="#fff" stroke-width="3.009" stroke-linecap="round" stroke-linejoin="round"/>
<path d="M266.08 453.844C266.604 451.504 264.355 449.144 262.052 448.46C259.098 447.574 255.873 449.291 254.052 451.775C253.354 452.74 252.783 453.791 252.352 454.901" stroke="#fff" stroke-width="3.009" stroke-linecap="round" stroke-linejoin="round"/>
<path d="M262.583 458.388C263.74 456.662 265.998 454.197 266.083 453.853" stroke="#fff" stroke-width="3.009" stroke-linecap="round" stroke-linejoin="round"/>
<path d="M262.565 458.424C262.403 458.704 262.231 458.984 262.065 459.263C262.211 458.971 262.378 458.691 262.565 458.424Z" stroke="#fff" stroke-width="3.009" stroke-linecap="round" stroke-linejoin="round"/>
<path d="M262.565 458.424C262.568 458.41 262.574 458.398 262.583 458.388" stroke="#fff" stroke-width="3.009" stroke-linecap="round" stroke-linejoin="round"/>
<path d="M266.079 453.853C264.695 455.183 263.516 456.711 262.579 458.388" stroke="#fff" stroke-width="3.009" stroke-linecap="round" stroke-linejoin="round"/>
<path d="M266.079 453.853V453.844" stroke="#fff" stroke-width="3.009" stroke-linecap="round" stroke-linejoin="round"/>
<path d="M241.329 539.92C239.703 532.703 236.559 524.989 236.629 517.599C236.629 517.239 236.602 516.88 236.548 516.524C236.15 515.055 235.873 513.557 235.717 512.043C232.917 507.77 230.081 503.434 228.572 498.565C227.063 493.696 227.037 488.123 229.672 483.751C232.96 478.295 239.491 475.865 245.525 473.823L258.885 469.297C261.085 468.557 263.294 467.807 265.485 467.067C268.828 465.937 272.342 464.682 274.591 461.967C276.84 459.252 277.091 454.578 274.184 452.582C272.035 451.109 268.99 451.66 266.884 453.187C266.604 453.394 266.333 453.61 266.071 453.837" stroke="#fff" stroke-width="3.009" stroke-linecap="round" stroke-linejoin="round"/>
<path d="M278.265 538.61C280.397 536.415 281.571 533.019 280.288 530.245C278.906 527.264 275.148 526.027 271.896 526.469C269.212 526.982 266.644 527.98 264.318 529.414C263.818 529.676 263.333 529.947 262.836 530.214C259.142 532.237 255.177 532.942 251.436 534.659C248.021 536.222 244.715 538.159 241.418 540.059V540.068C239.909 540.944 238.401 541.812 236.883 542.642C234.805 543.611 232.946 544.991 231.418 546.698C230.009 548.505 229.418 551.152 230.633 553.085C231.201 553.871 231.958 554.499 232.835 554.913C233.711 555.327 234.678 555.512 235.646 555.451C236.229 555.44 236.81 555.373 237.381 555.251C238.698 554.957 239.988 554.552 241.237 554.041C250.785 550.437 260.33 546.837 269.872 543.241C272.837 542.021 275.685 540.533 278.381 538.796C280.638 537.374 283.01 536.141 285.472 535.111C291.352 532.781 297.125 530.152 302.744 527.253C308.326 524.381 313.759 521.24 319.044 517.832C324.41 514.372 329.598 510.663 334.608 506.703C354.568 490.995 371.285 471.557 383.829 449.469C386.096 445.441 388.256 441.294 391.309 437.825C393.98 434.592 397.639 432.326 401.724 431.375C402.177 431.285 402.636 431.222 403.097 431.186C409.556 430.653 415.364 434.772 420.522 438.692C423.488 440.815 426.246 443.213 428.76 445.855C430.698 447.925 432.17 450.386 433.078 453.072C434.978 458.989 433.249 465.43 431.018 471.229C420.612 498.282 399.33 520.043 375.139 536.005C366.356 541.748 357.227 546.943 347.805 551.56C333.181 558.813 317.969 565.002 302.748 571.017C300.77 571.793 298.782 572.58 296.804 573.356" stroke="#fff" stroke-width="3.009" stroke-linecap="round" stroke-linejoin="round"/>
<path d="M302.754 571V571.018C303.494 598.19 304.461 631.983 305.21 659.145C305.418 666.714 305.463 674.853 301.2 681.114C299.839 683.072 298.147 684.777 296.2 686.154C292.353 688.991 287.628 690.816 283.039 692.342C265.009 698.302 246.247 701.768 227.277 702.642C221.271 702.913 215.164 702.913 209.347 701.404C208.579 701.204 207.811 700.971 207.053 700.709C202.031 699.145 197.659 695.978 194.605 691.694C188.426 682.436 191.305 670.051 194.894 659.51C201.359 640.504 209.377 622.062 218.868 604.372C196.746 615.528 178.906 635.392 173.378 659.546C171.643 667.133 170.351 675.922 163.803 680.133C160.658 681.995 156.997 682.796 153.361 682.418C150.138 682.16 146.944 681.622 143.813 680.81C139.947 679.898 135.782 678.75 132.495 676.646C130.445 675.399 128.781 673.607 127.689 671.47C125.531 667.061 126.551 661.822 127.852 657.089C134.774 632.17 148.359 609.61 167.145 591.835C185.853 574.202 212.245 560.688 237.387 555.323" stroke="#fff" stroke-width="3.009" stroke-linecap="round" stroke-linejoin="round"/>
<path d="M140.962 702.994C140.819 707.447 141.079 711.903 141.739 716.309C141.928 717.583 142.587 719.2 143.861 719.047C144.846 718.929 145.325 717.791 145.578 716.825C147.643 708.963 148.336 700.804 147.628 692.706C148.354 696.797 149.719 700.748 151.674 704.414C152.297 705.588 153.246 706.888 154.583 706.852C155.082 706.795 155.554 706.594 155.941 706.273C156.327 705.953 156.612 705.526 156.76 705.046C157.034 704.077 157.102 703.061 156.96 702.064C156.453 695.475 155.247 688.958 153.36 682.625" stroke="#fff" stroke-width="3.009" stroke-linecap="round" stroke-linejoin="round"/>
<path d="M140.962 702.994C141.404 700.395 141.631 697.763 141.639 695.126C141.274 697.735 141.048 700.361 140.962 702.994Z" stroke="#fff" stroke-width="3.009" stroke-linecap="round" stroke-linejoin="round"/>
<path d="M132.4 676.8C126.139 687.6 124.957 695.689 124.5 708.172C124.446 709.735 124.843 711.794 126.406 711.966C127.825 712.119 128.7 710.484 129.171 709.129C131.275 703.058 133.376 696.985 135.476 690.91C133.388 698.509 132.505 706.387 132.857 714.26C132.902 715.398 133.157 716.78 134.231 717.169C135.568 717.657 136.75 716.148 137.338 714.848C139.055 711.071 140.273 707.087 140.96 702.996" stroke="#fff" stroke-width="3.009" stroke-linecap="round" stroke-linejoin="round"/>
<path d="M401.73 431.36C399.711 427.495 398.607 423.218 398.505 418.86C398.469 417.614 398.794 416.033 400.013 415.78C400.998 415.58 401.856 416.43 402.497 417.207C405.271 420.514 408.047 423.82 410.826 427.126C411.148 423.356 412.279 419.7 414.143 416.408C416.007 413.115 418.559 410.264 421.626 408.048C422.747 407.254 424.319 406.548 425.42 407.38C426.613 408.28 426.196 410.136 425.673 411.526C423.397 417.55 421.12 423.572 418.844 429.592C421.62 423.597 425.837 418.383 431.12 414.416C431.82 413.83 432.635 413.396 433.513 413.142C433.954 413.025 434.42 413.035 434.856 413.17C435.292 413.306 435.681 413.562 435.979 413.909C436.855 415.093 436.033 416.737 435.22 417.965C431.806 423.123 428.388 428.281 424.968 433.439C429.265 427.924 434.564 423.269 440.586 419.717C441.581 419.048 442.708 418.601 443.892 418.407C444.484 418.32 445.09 418.405 445.636 418.651C446.182 418.898 446.646 419.296 446.973 419.798C447.749 421.217 446.891 422.951 446.024 424.324C441.163 431.971 435.5 439.078 429.131 445.524" stroke="#fff" stroke-width="3.009" stroke-linecap="round" stroke-linejoin="round"/>
<path d="M255.438 476.038C253.577 475.859 251.701 475.919 249.856 476.219C248.867 476.337 247.919 476.683 247.085 477.228C246.252 477.773 245.555 478.503 245.051 479.362C244.546 480.221 244.247 481.184 244.176 482.178C244.106 483.171 244.266 484.168 244.644 485.089C245.333 487.044 246.304 488.888 247.526 490.563C249.414 493.445 251.301 496.324 253.189 499.199C253.93 500.328 254.698 501.728 254.129 502.957C253.935 503.32 253.661 503.634 253.327 503.875C252.994 504.116 252.61 504.277 252.205 504.348C251.395 504.479 250.57 504.488 249.758 504.375" stroke="#fff" stroke-width="3.009" stroke-linecap="round" stroke-linejoin="round"/>
<path d="M253.009 487.528C252.548 486.389 252.078 485.252 251.609 484.104" stroke="#fff" stroke-width="3.009" stroke-linecap="round" stroke-linejoin="round"/>
<path d="M237.842 491.556C237.426 490.472 237.011 489.391 236.595 488.313" stroke="#fff" stroke-width="3.009" stroke-linecap="round" stroke-linejoin="round"/>
<path d="M250.8 514.835C250.204 515.505 249.448 516.013 248.602 516.312C247.756 516.61 246.849 516.69 245.964 516.543C245.079 516.396 244.246 516.027 243.542 515.471C242.839 514.915 242.287 514.19 241.939 513.363" stroke="#fff" stroke-width="3.009" stroke-linecap="round" stroke-linejoin="round"/>
<path d="M207.031 700.8C205.854 709.849 202.895 718.576 198.324 726.474C193.753 734.373 187.661 741.286 180.401 746.815C165.589 758.008 146.94 762.863 128.551 760.315C119.807 759.059 111.09 756.124 102.328 757.307C99.1572 757.745 96.0843 758.72 93.2407 760.189C87.5261 763.134 82.9113 767.841 80.0787 773.612C78.0446 777.968 77.0373 782.732 77.1343 787.538C77.2314 792.345 78.4303 797.065 80.6387 801.335C82.549 804.934 85.0775 808.169 88.1087 810.892C91.7829 814.186 95.9804 816.845 100.529 818.759C108.795 822.282 117.864 823.565 126.852 823.859C156.658 824.866 185.886 815.473 209.524 797.29C233.163 779.107 249.74 753.267 256.413 724.2" stroke="#fff" stroke-width="3.009" stroke-linecap="round" stroke-linejoin="round"/>
<path d="M296.213 686.175C315.905 725.234 335.326 763.675 355.013 802.739C362.122 816.839 369.285 831.075 373.106 846.396C374.204 850.303 374.715 854.352 374.624 858.41C374.565 859.564 374.414 860.712 374.172 861.842C371.725 873.956 360.009 883.512 347.507 884.723C339.113 885.37 330.74 883.23 323.686 878.635C319.134 875.783 315.104 872.172 311.772 867.958C305.042 859.44 301.14 849.097 297.337 838.935C284.004 803.245 269.759 759.895 256.417 724.206" stroke="#fff" stroke-width="3.009" stroke-linecap="round" stroke-linejoin="round"/>
<path d="M323.638 878.699C322.979 885.691 322.952 893.558 328.381 898.012C331.994 900.966 337.017 901.264 341.681 901.436C352.674 901.836 363.668 902.236 374.661 902.636C386.461 903.06 399.466 903.087 408.461 895.454C413.898 890.838 416.943 882.211 412.633 876.539C410.159 873.278 406.003 871.859 402.092 870.623C392.959 867.732 383.825 864.838 374.692 861.942" stroke="#fff" stroke-width="3.009" stroke-linecap="round" stroke-linejoin="round"/>
<path d="M93.2591 760.192C93.2501 760.192 93.2501 760.183 93.2411 760.183C86.1771 757.364 78.2181 754.547 71.1821 757.446C66.6281 759.315 63.3231 763.29 60.2161 767.111C54.8047 773.759 49.3907 780.408 43.9741 787.056C37.8871 794.535 31.4741 802.9 31.6531 812.548C31.8431 822.268 39.9731 831.31 49.6531 832.141C59.1731 832.962 67.7191 826.766 75.2621 820.895C79.5434 817.552 83.8251 814.216 88.1071 810.886L88.2241 810.796" stroke="#fff" stroke-width="3.009" stroke-linecap="round" stroke-linejoin="round"/>
<path d="M711.022 511.98C710.647 511.575 710.168 511.282 709.637 511.132C709.106 510.982 708.544 510.981 708.013 511.129C707.482 511.278 707.002 511.57 706.626 511.974C706.25 512.377 705.992 512.877 705.882 513.417" stroke="#fff" stroke-width="3.009" stroke-linecap="round" stroke-linejoin="round"/>
<path d="M716.036 532.369C716.91 533.105 717.956 533.607 719.077 533.828C720.197 534.049 721.356 533.981 722.443 533.631C723.531 533.281 724.511 532.661 725.293 531.828C726.075 530.995 726.632 529.977 726.912 528.869" stroke="#fff" stroke-width="3.009" stroke-linecap="round" stroke-linejoin="round"/>
<path d="M719.748 511.492C721.026 511.048 722.407 510.992 723.718 511.331C725.028 511.67 726.208 512.39 727.11 513.398" stroke="#fff" stroke-width="3.009" stroke-linecap="round" stroke-linejoin="round"/>
<path d="M702.233 506.777C703.933 506.254 705.639 505.72 707.333 505.187" stroke="#fff" stroke-width="3.009" stroke-linecap="round" stroke-linejoin="round"/>
<path d="M716.785 475.831C712.277 469.245 703.371 467.096 695.675 469.209C687.979 471.322 681.881 478.025 679.885 485.757C678.973 489.655 678.902 493.703 679.676 497.632C680.45 501.56 682.052 505.278 684.375 508.539C674.61 513.805 670.753 526.958 674.321 537.462C675.945 542.099 678.659 546.278 682.234 549.648C686.75 553.932 692.194 557.115 698.141 558.948C700.333 559.691 702.622 560.105 704.934 560.177C705.675 560.186 706.416 560.131 707.147 560.014C708.494 559.807 709.788 559.344 710.959 558.65C712.44 557.815 713.624 556.54 714.346 555.001C714.61 554.403 714.798 553.775 714.906 553.131C715.529 549.472 713.542 545.531 711.419 542.309C706.857 535.39 701.392 528.94 698.349 521.235C695.306 513.53 695.223 503.91 700.814 497.804" stroke="#fff" stroke-width="3.009" stroke-linecap="round" stroke-linejoin="round"/>
<path d="M698.746 495.351C699.505 496.091 700.282 496.824 701.076 497.519C707.101 502.919 714.066 507.365 721.871 509.361C727.119 510.725 732.622 510.778 737.895 509.515C741.521 508.648 744.916 507.008 747.85 504.709" stroke="#fff" stroke-width="3.009" stroke-linecap="round" stroke-linejoin="round"/>
<path d="M737.913 509.604C727.94 522.928 727.182 542.404 735.899 556.54C736.188 557.001 736.477 557.452 736.785 557.905C738.692 560.693 740.893 563.267 743.352 565.582C746.382 568.437 749.648 571.03 753.117 573.332C764.707 581.237 778.184 587.315 787.868 597.487C800.306 610.557 805.168 628.851 810.008 646.23C811.463 651.46 813.017 656.771 814.85 661.956C819.086 673.998 824.823 685.388 834.344 693.656C840.318 698.838 847.474 702.471 855.182 704.238C862.89 706.005 870.914 705.851 878.549 703.789C886.183 701.727 893.194 697.821 898.965 692.414C904.736 687.008 909.09 680.266 911.644 672.781" stroke="#fff" stroke-width="3.009" stroke-linecap="round" stroke-linejoin="round"/>
<path d="M714.076 478.405C714.934 477.502 715.845 476.652 716.804 475.858C720.829 472.45 725.576 470.003 730.687 468.702C735.797 467.4 741.137 467.279 746.302 468.347C751.466 469.415 756.32 471.644 760.495 474.866C764.67 478.088 768.057 482.217 770.4 486.942C775.35 496.897 775.242 508.477 776.027 519.561C776.812 530.645 779.017 542.55 787.11 550.174C800.489 562.766 823.18 557.974 838.554 568.032C847.641 573.984 852.916 584.49 855.075 595.15C857.234 605.81 856.655 616.784 856.43 627.65C856.205 638.516 856.349 649.61 859.853 659.898C863.357 670.186 870.753 679.689 881.063 683.131C891.373 686.573 907.385 682.779 911.649 672.779" stroke="#fff" stroke-width="3.009" stroke-linecap="round" stroke-linejoin="round"/>
<path d="M715.358 553.217C715.87 555.375 717.009 557.334 718.632 558.847C720.255 560.36 722.289 561.359 724.478 561.718C726.667 562.077 728.913 561.781 730.934 560.866C732.955 559.951 734.661 558.459 735.835 556.577" stroke="#fff" stroke-width="3.009" stroke-linecap="round" stroke-linejoin="round"/>
<path d="M710.932 558.527C710.941 558.573 710.95 558.609 710.959 558.654C711.723 562.773 712.9 566.804 714.473 570.686C716.084 574.633 718.855 577.997 722.421 580.333C726.044 582.519 730.777 583.106 734.544 581.181C737.233 579.673 739.351 577.321 740.569 574.488C741.769 571.673 742.657 568.735 743.215 565.726" stroke="#fff" stroke-width="3.009" stroke-linecap="round" stroke-linejoin="round"/>
<path d="M704.9 559.766C704.909 559.902 704.927 560.046 704.936 560.182C705.505 566.731 706.544 573.306 709.109 579.359C711.728 585.538 716.065 591.165 721.99 594.327C727.915 597.489 735.504 597.827 741.213 594.3C748.213 589.982 750.924 581.3 753.1 573.361" stroke="#fff" stroke-width="3.009" stroke-linecap="round" stroke-linejoin="round"/>
<path d="M682.911 549.775C682.686 549.73 682.46 549.694 682.234 549.649C654.111 544.243 628.389 530.164 608.678 509.389C605.276 505.814 602.083 502.047 599.112 498.107C595.454 493.265 591.958 488.016 586.737 484.918C583.155 482.845 579.014 481.942 574.894 482.335C571.056 482.685 567.341 483.876 564.016 485.825C560.691 487.773 557.835 490.431 555.654 493.608C555.509 493.833 555.365 494.05 555.229 494.276C548.843 504.601 549.756 518.25 555.04 529.176C559.348 538.091 566.186 545.476 573.748 551.966C575.455 553.433 577.189 554.854 578.948 556.229C604.972 576.568 635.589 590.209 668.114 595.957C670.48 596.381 672.856 596.752 675.241 597.087" stroke="#fff" stroke-width="3.009" stroke-linecap="round" stroke-linejoin="round"/>
<path d="M668.116 595.952V595.961C663.06 622.121 649.608 645.917 629.8 663.737C624.8 668.245 618.915 673.565 619.71 680.237C620.477 686.66 627.081 690.526 633.043 693.045C634.362 693.605 635.707 694.145 637.062 694.671C654.158 701.145 672.064 705.231 690.276 706.812" stroke="#fff" stroke-width="3.009" stroke-linecap="round" stroke-linejoin="round"/>
<path d="M766.088 595.916C772.394 609.601 776.152 625.193 772.303 639.763C768.454 654.333 755.365 667.106 740.303 666.807C732.851 666.663 725.733 663.492 718.289 663.086C712.592 662.815 706.935 664.165 701.975 666.979C699.012 668.636 696.36 670.793 694.135 673.356C689.558 678.729 686.999 685.531 686.9 692.588C686.861 694.65 687.045 696.709 687.45 698.731C688.021 701.541 688.985 704.257 690.314 706.798C693.889 713.463 699.363 718.918 706.041 722.47C715.173 727.421 725.832 728.993 736.202 728.531C754.772 727.722 772.544 720.753 786.714 708.722C800.884 696.692 810.644 680.286 814.456 662.093" stroke="#fff" stroke-width="3.009" stroke-linecap="round" stroke-linejoin="round"/>
<path d="M686.741 692.588C676.515 689.509 666.922 684.627 658.414 678.171C657.374 677.377 656.228 676.171 656.697 674.955C657.248 673.501 659.325 673.672 660.807 674.107C666.678 675.833 672.552 677.561 678.43 679.292C671.416 676.612 665.022 672.529 659.641 667.292C658.809 666.579 658.141 665.695 657.681 664.7C657.457 664.201 657.378 663.649 657.453 663.108C657.528 662.566 657.754 662.056 658.105 661.637C659.217 660.508 661.096 660.915 662.586 661.437C670.264 664.191 677.358 668.36 683.5 673.728C678.17 668.65 674.086 662.408 671.567 655.49C670.881 653.612 670.636 650.937 672.479 650.17C673.924 649.57 675.46 650.712 676.607 651.77C681.607 656.413 686.181 662.095 691.186 666.738C689.353 660.911 688.975 654.724 690.086 648.717C690.218 647.755 690.538 646.828 691.026 645.989C691.278 645.574 691.632 645.23 692.054 644.99C692.476 644.75 692.952 644.621 693.438 644.616C694.919 644.697 695.849 646.206 696.482 647.552C699.296 653.639 701.115 660.137 701.87 666.8" stroke="#fff" stroke-width="3.009" stroke-linecap="round" stroke-linejoin="round"/>
<path d="M574.884 482.234C579.62 481.213 584.028 479.031 587.711 475.884C589.247 474.574 590.764 472.684 590.222 470.744C589.999 470.106 589.614 469.538 589.106 469.093C588.598 468.648 587.983 468.342 587.322 468.206C585.993 467.956 584.627 467.987 583.311 468.296C578.421 469.181 573.749 471.006 569.554 473.671C569.848 469.209 569.169 464.738 567.566 460.564C565.963 456.391 563.473 452.615 560.268 449.498C558.949 448.233 556.953 447.033 555.426 448.035C553.764 449.128 554.305 451.657 555.038 453.509C557.748 460.338 560.458 467.171 563.168 474.009C560.052 466.943 555.706 460.486 550.332 454.94C549.112 453.675 547.026 452.456 545.815 453.72C544.83 454.751 545.49 456.44 546.194 457.677C550.096 464.605 554.005 471.53 557.92 478.453C554.568 472.723 550.175 467.669 544.967 463.553C543.052 462.044 540.233 460.671 538.367 462.234C537.87 462.72 537.513 463.332 537.335 464.004C537.157 464.677 537.164 465.385 537.355 466.054C537.759 467.382 538.403 468.625 539.255 469.722C544.693 477.662 550.125 485.599 555.55 493.533" stroke="#fff" stroke-width="3.009" stroke-linecap="round" stroke-linejoin="round"/>
<path d="M757.724 724.566C757.733 724.602 757.742 724.647 757.751 724.683C758.7 729.314 760.581 733.704 763.281 737.584C765.982 741.464 769.444 744.754 773.457 747.252C777.47 749.75 781.95 751.405 786.623 752.115C791.297 752.825 796.066 752.576 800.64 751.383C806.25 749.919 811.525 747.046 817.297 746.469C822.028 746.058 826.764 747.189 830.797 749.694C833.932 751.587 836.651 754.094 838.791 757.064C840.799 759.795 842.248 762.896 843.054 766.188C844.533 772.803 843.888 779.716 841.212 785.943C841.149 786.096 841.085 786.25 841.012 786.403C839.085 790.914 836.341 795.03 832.918 798.544C824.689 806.999 813.344 811.859 801.808 814.352C789.045 817.037 775.868 817.094 763.082 814.519C750.296 811.944 738.168 806.791 727.439 799.374C706.121 784.461 691.261 758.365 687.711 732.593C675.635 767.66 662.419 802.308 648.065 836.536C644.072 846.057 639.339 856.21 631.443 862.398C629.632 863.835 627.643 865.034 625.527 865.966C621.527 867.67 617.198 868.462 612.854 868.287C604.687 868.116 596.242 865.315 588.392 862.47C588.284 862.434 588.166 862.389 588.058 862.353C586.631 861.839 585.176 861.287 583.75 860.664C582.901 860.294 582.06 859.896 581.257 859.464C577.978 857.748 575.142 855.481 573.688 852.148C571.258 846.538 573.715 840.124 576.153 834.515C596.461 787.905 616.761 741.291 637.053 694.674C637.125 694.502 637.206 694.33 637.278 694.159" stroke="#fff" stroke-width="3.009" stroke-linecap="round" stroke-linejoin="round"/>
<path d="M581.235 859.529C580.729 864.001 576.817 866.665 572.888 868.86C568.959 871.055 566.33 871.652 563.44 875.093C559.095 880.269 555.599 891.614 561.38 895.119C568.327 899.328 573.431 902.075 580.016 903.574C586.601 905.073 587.08 905.914 593.828 905.706C604.162 905.372 620.611 902.406 627.16 898.128C632.471 894.659 633.438 887.028 633.682 880.685C633.926 874.342 632.724 868.616 631.451 862.402" stroke="#fff" stroke-width="3.009" stroke-linecap="round" stroke-linejoin="round"/>
<path d="M588.551 862.365C588.497 862.401 588.451 862.437 588.398 862.473C587.259 863.322 586.113 864.181 584.998 865.073C583.079 866.567 581.351 868.29 579.85 870.204C578.869 871.495 578.081 872.922 577.51 874.44C576.651 876.587 576.431 878.937 576.878 881.206C578.078 886.725 583.951 890.411 589.597 890.306C593.578 890.117 597.395 888.661 600.49 886.151C601.834 885.126 603.073 883.97 604.19 882.701C606.006 880.611 607.598 878.337 608.942 875.917C610.36 873.442 611.616 870.858 612.853 868.293C612.862 868.266 612.88 868.248 612.889 868.221" stroke="#fff" stroke-width="3.009" stroke-linecap="round" stroke-linejoin="round"/>
<path d="M604.947 892.21C603.466 890.187 601.975 888.173 600.493 886.15C597.791 882.483 595.093 878.813 592.399 875.139C589.932 871.787 587.465 868.432 584.999 865.075C584.377 864.235 583.762 863.386 583.139 862.547" stroke="#fff" stroke-width="3.009" stroke-linecap="round" stroke-linejoin="round"/>
<path d="M570.648 874.117L577.513 874.442C582.473 874.677 587.435 874.909 592.399 875.137C597.909 875.399 603.426 875.658 608.948 875.914C611.348 876.022 613.753 876.14 616.156 876.248" stroke="#fff" stroke-width="3.009" stroke-linecap="round" stroke-linejoin="round"/>
<path d="M830.918 749.5C833.219 746.978 835.803 744.73 838.618 742.8C841.463 740.864 844.89 739.97 848.318 740.271C852.918 740.871 856.618 744.21 859.899 747.48C869.002 756.526 877.417 766.239 885.073 776.539C887.088 779.239 889.102 782.113 889.717 785.428C890.43 789.312 889.117 793.25 887.838 796.991C886.176 801.824 884.044 807.18 879.347 809.191C875.047 811.025 870.088 809.372 865.905 807.277C861.588 805.107 857.517 802.478 853.764 799.436C852.979 798.813 852.202 798.162 851.452 797.494C847.797 794.256 844.507 790.627 841.642 786.673" stroke="#fff" stroke-width="3.009" stroke-linecap="round" stroke-linejoin="round"/>
<path d="M854.188 798.916C857.031 799.746 860.083 799.48 862.74 798.171C865.397 796.861 867.467 794.604 868.541 791.843C869.605 788.365 869.331 784.615 867.774 781.328C867.037 779.686 866.119 778.132 865.036 776.694C863.947 775.262 862.771 773.898 861.514 772.611C860.882 771.952 860.231 771.311 859.572 770.678C853.57 764.916 846.594 760.264 838.967 756.939" stroke="#fff" stroke-width="3.009" stroke-linecap="round" stroke-linejoin="round"/>
<path d="M851.45 797.543V797.488C851.875 791.527 852.336 785.474 854.296 779.829C854.323 779.766 854.341 779.693 854.368 779.629C855.496 776.333 857.263 773.291 859.568 770.677C861.188 768.824 863.163 767.313 865.375 766.233" stroke="#fff" stroke-width="3.009" stroke-linecap="round" stroke-linejoin="round"/>
<path d="M841.189 785.964C841.198 785.955 841.207 785.955 841.216 785.946C848.539 781.461 856.607 778.328 865.036 776.695C867.775 776.169 870.54 775.798 873.32 775.584" stroke="#fff" stroke-width="3.009" stroke-linecap="round" stroke-linejoin="round"/>
<path d="M348.046 552.042C366.483 571.933 385.994 590.812 403.681 611.381C408.658 617.171 413.491 623.088 418.088 629.181C418.088 629.19 418.088 629.19 418.097 629.199" stroke="#fff" stroke-width="3.009" stroke-linecap="round" stroke-linejoin="round"/>
<path d="M608.885 509.19C614.504 502.929 619.021 496.607 624.44 490.283C634.377 476.734 643.41 464.083 651.54 449.635C652.44 448.735 667.799 419.825 672.316 405.373C676.833 390.921 679.543 376.467 678.64 361.111C678.64 348.465 677.74 335.819 674.123 322.269C669.606 303.299 661.477 287.943 651.54 270.781C648.83 266.264 645.217 262.65 642.507 258.134C635.281 248.198 627.151 240.069 618.118 231.934C603.502 219.762 587.035 210.006 569.339 203.034C567.532 202.134 566.629 203.034 564.822 202.134C562.112 201.234 560.305 199.424 557.596 198.521C552.176 196.715 546.756 196.715 542.239 194.004C534.109 191.294 525.98 191.294 517.85 189.487C468.168 183.164 419.389 193.1 376.03 222.007C348.03 240.073 325.445 261.753 309.186 289.755L306.475 292.466C275.762 345.76 267.633 410.799 291.119 467.707C292.019 469.514 309.185 502.034 318.652 517.207" stroke="#fff" stroke-width="3.009" stroke-linecap="round" stroke-linejoin="round"/>
<path d="M529 626.3C530.852 620.528 533.166 614.916 535.92 609.516C547.663 589.644 558.503 569.77 573.587 552.165" stroke="#fff" stroke-width="3.009" stroke-linecap="round" stroke-linejoin="round"/>
<path d="M528.978 626.485C514.729 624.778 500.341 624.542 486.043 625.78C472.286 626.973 458.583 625.835 444.807 626.702C436.623 627.217 427.545 627.307 419.407 628.771C418.952 628.852 418.508 628.991 418.088 629.186C416.804 629.926 415.591 630.785 414.466 631.751C413.428 632.551 412.568 633.557 411.938 634.706C411.308 635.855 410.924 637.122 410.808 638.427C410.556 641.423 411.486 644.4 413.4 646.719C415.01 648.462 417.014 649.794 419.244 650.603C420.844 651.289 422.46 651.922 424.077 652.503C441.312 658.681 459.324 659.07 477.101 659.403C495.058 659.737 513.459 659.972 530.513 652.003C531.724 651.452 532.924 650.846 534.113 650.196C537.663 648.272 541.619 645.002 542.013 639.429C542.141 637.538 541.829 635.642 541.102 633.892C540.375 632.141 539.252 630.582 537.822 629.338C535.329 627.338 532.429 626.909 529.61 626.556C529.4 626.53 529.186 626.5 528.978 626.485Z" stroke="#fff" stroke-width="3.009" stroke-linecap="round" stroke-linejoin="round"/>
<path d="M423.879 653.042C421.216 652.343 418.414 652.372 415.766 653.126C413.119 653.879 410.722 655.33 408.826 657.326C406.93 659.323 405.605 661.791 404.989 664.474C404.373 667.158 404.489 669.957 405.325 672.58C407.159 678.334 412.298 682.562 417.917 684.766C418.386 684.946 418.866 685.118 419.344 685.28C424.574 687.042 430.184 687.457 435.703 687.8C457.517 689.164 479.368 689.652 501.256 689.264C510.406 689.11 519.846 688.722 528.345 685.564C529.742 685.05 531.108 684.456 532.437 683.785C538.607 680.659 544.18 675.158 544.884 668.285C545.684 660.344 538.684 652.495 530.703 652.414" stroke="#fff" stroke-width="3.009" stroke-linecap="round" stroke-linejoin="round"/>
<path d="M419.678 685.055C419.57 685.127 419.453 685.208 419.344 685.28C415.225 688.08 411.061 691.007 408.198 695.08C405.262 699.262 403.953 704.971 406.247 709.532C408.035 712.703 410.96 715.076 414.431 716.172C417.632 717.189 420.95 717.79 424.304 717.96C424.548 717.979 424.792 718.006 425.036 718.024C457.455 720.842 490.12 722.974 522.513 719.794C523.013 719.74 523.498 719.694 523.995 719.641C527.453 719.368 530.863 718.652 534.138 717.509C537.917 716.198 541.094 713.564 543.081 710.093C545.564 705.287 544.581 699.181 541.5 694.746C538.419 690.311 533.523 687.384 528.393 685.677" stroke="#fff" stroke-width="3.009" stroke-linecap="round" stroke-linejoin="round"/>
<path d="M424.275 718.242C424.348 725.965 426.217 734.285 432.116 739.253C436.894 743.264 443.407 744.353 449.595 745.124C459.529 746.362 469.513 747.136 479.548 747.446C487.778 747.698 496.248 747.599 503.893 744.519C509.029 742.394 513.557 739.027 517.07 734.719C520.583 730.411 522.97 725.299 524.018 719.84" stroke="#fff" stroke-width="3.009" stroke-linecap="round" stroke-linejoin="round"/>
<path d="M715.094 515.991C714.468 517.811 713.842 519.631 713.217 521.45C712.941 522.086 712.82 522.778 712.866 523.47C712.968 524.023 713.274 524.518 713.723 524.857C714.171 525.196 714.731 525.355 715.291 525.302" stroke="#fff" stroke-width="3.009" stroke-linecap="round" stroke-linejoin="round"/>
<path d="M594.449 522.069L590.649 509.627" stroke="url(#paint10_linear_1_2)" stroke-width="3.009" stroke-linecap="round" stroke-linejoin="round"/>
<path d="M599.486 514.875L584.274 517.375L584.839 517.565" stroke="url(#paint11_linear_1_2)" stroke-width="3.009" stroke-linecap="round" stroke-linejoin="round"/>
<path d="M617.7 532.629L608.464 524.451C608.214 528.911 607.964 533.371 607.716 537.831L617.516 533.106" stroke="url(#paint12_linear_1_2)" stroke-width="3.009" stroke-linecap="round" stroke-linejoin="round"/>
<path d="M611.683 567.3L610.369 553.218C610.54 552.908 611.079 553.418 610.78 553.606" stroke="url(#paint13_linear_1_2)" stroke-width="3.009" stroke-linecap="round" stroke-linejoin="round"/>
<path d="M603.4 563.208L616.877 559.365" stroke="url(#paint14_linear_1_2)" stroke-width="3.009" stroke-linecap="round" stroke-linejoin="round"/>
<path d="M634.35 575.321L640.224 564.805C641.948 568.691 643.671 572.577 645.393 576.463L634.12 574.835L634.959 574.346" stroke="url(#paint15_linear_1_2)" stroke-width="3.009" stroke-linecap="round" stroke-linejoin="round"/>
<path d="M668.028 580.909L678.692 574.168C678.511 574.612 677.664 574.333 677.783 573.868C677.902 573.403 678.783 573.568 678.724 574.041" stroke="url(#paint16_linear_1_2)" stroke-width="3.009" stroke-linecap="round" stroke-linejoin="round"/>
<path d="M677.023 584.239C674.897 579.032 672.772 573.825 670.646 568.617" stroke="url(#paint17_linear_1_2)" stroke-width="3.009" stroke-linecap="round" stroke-linejoin="round"/>
<path d="M694.113 591.433C694.459 591.259 694.851 591.199 695.233 591.262C695.614 591.325 695.966 591.507 696.238 591.783C696.509 592.059 696.685 592.414 696.742 592.797C696.798 593.18 696.731 593.571 696.55 593.913C695.912 597.883 695.274 601.854 694.636 605.825C692.59 602.107 688.228 599.114 686.511 595.535C684.417 591.163 690.784 591.951 694.113 591.433Z" stroke="url(#paint18_linear_1_2)" stroke-width="3.009" stroke-linecap="round" stroke-linejoin="round"/>
<path d="M753.1 615.399C749.928 612.784 746.912 609.985 744.068 607.015L755.668 603.983C754.758 607.945 753.848 611.906 752.938 615.868" stroke="url(#paint19_linear_1_2)" stroke-width="3.009" stroke-linecap="round" stroke-linejoin="round"/>
<path d="M700.419 631.1C700.313 625.999 700.206 620.899 700.1 615.8" stroke="url(#paint20_linear_1_2)" stroke-width="3.009" stroke-linecap="round" stroke-linejoin="round"/>
<path d="M691.364 624.59L706.344 622.012" stroke="url(#paint21_linear_1_2)" stroke-width="3.009" stroke-linecap="round" stroke-linejoin="round"/>
<path d="M751.231 650.154L746.6 635.861" stroke="url(#paint22_linear_1_2)" stroke-width="3.009" stroke-linecap="round" stroke-linejoin="round"/>
<path d="M741.037 646.187L756.968 639.787" stroke="url(#paint23_linear_1_2)" stroke-width="3.009" stroke-linecap="round" stroke-linejoin="round"/>
<path d="M726.4 654.714L721.724 643.89C719.938 647.188 718.151 650.487 716.363 653.785L726.745 655.228" stroke="url(#paint24_linear_1_2)" stroke-width="3.009" stroke-linecap="round" stroke-linejoin="round"/>
<path d="M669.277 629.467L677.631 639.33C673.223 640.607 669.484 642.854 665.44 644.849C665.354 642.352 670.585 631.012 669.277 629.467Z" stroke="url(#paint25_linear_1_2)" stroke-width="3.009" stroke-linecap="round" stroke-linejoin="round"/>
<path d="M648.173 681.425C646.655 676.546 645.137 671.667 643.619 666.788" stroke="url(#paint26_linear_1_2)" stroke-width="3.009" stroke-linecap="round" stroke-linejoin="round"/>
<path d="M638.106 678.539C642.558 675.759 647.011 672.98 651.465 670.201" stroke="url(#paint27_linear_1_2)" stroke-width="3.009" stroke-linecap="round" stroke-linejoin="round"/>
<path d="M750.973 704.099L741.331 693.399" stroke="url(#paint28_linear_1_2)" stroke-width="3.009" stroke-linecap="round" stroke-linejoin="round"/>
<path d="M739.52 705.37C743.555 701.859 747.588 698.348 751.62 694.835" stroke="url(#paint29_linear_1_2)" stroke-width="3.009" stroke-linecap="round" stroke-linejoin="round"/>
<path d="M774.286 673.323L785.048 681.785C781.199 683.278 777.236 685.285 773.235 686.228C772.173 682.823 773.883 676.991 774.286 673.323Z" stroke="url(#paint30_linear_1_2)" stroke-width="3.009" stroke-linecap="round" stroke-linejoin="round"/>
<path d="M797.545 647.358C796.785 643.323 796.026 639.287 795.268 635.252" stroke="url(#paint31_linear_1_2)" stroke-width="3.009" stroke-linecap="round" stroke-linejoin="round"/>
<path d="M789.9 643.2L802.971 639.053" stroke="url(#paint32_linear_1_2)" stroke-width="3.009" stroke-linecap="round" stroke-linejoin="round"/>
<path d="M551.8 519.72C555.362 511.263 561.562 504.184 569.475 499.538C577.389 494.893 586.591 492.929 595.712 493.94" stroke="#fff" stroke-width="3.009" stroke-linecap="round" stroke-linejoin="round"/>
<path d="M729.474 664.882C718.97 669.912 710.823 678.817 706.746 689.727C702.669 700.636 702.978 712.701 707.609 723.388" stroke="#fff" stroke-width="3.009" stroke-linecap="round" stroke-linejoin="round"/>
<path d="M391.6 452.875C391.286 457.788 390.973 462.701 390.659 467.613C392.678 466.657 401.259 463.858 401.185 461.679C401.079 458.586 391.419 455.7 391.6 452.875Z" stroke="url(#paint33_linear_1_2)" stroke-width="3.009" stroke-linecap="round" stroke-linejoin="round"/>
<path d="M387.474 504.583C388.562 499.888 389.652 495.193 390.742 490.499" stroke="url(#paint34_linear_1_2)" stroke-width="3.009" stroke-linecap="round" stroke-linejoin="round"/>
<path d="M395.749 499.638L384.067 494.288" stroke="url(#paint35_linear_1_2)" stroke-width="3.009" stroke-linecap="round" stroke-linejoin="round"/>
<path d="M330.393 530.074L331.557 543.249C331.557 540.657 339.105 536.134 340.257 533.522C337.282 531.945 333.607 531.144 330.393 530.074Z" stroke="url(#paint36_linear_1_2)" stroke-width="3.009" stroke-linecap="round" stroke-linejoin="round"/>
<path d="M286 553.373C285.149 554.671 284.843 556.251 285.147 557.773C285.452 559.295 286.343 560.636 287.628 561.507C288.977 562.277 290.566 562.516 292.082 562.177C293.599 561.838 294.935 560.946 295.828 559.674C300.442 552.705 290.827 546.753 286 553.373Z" stroke="url(#paint37_linear_1_2)" stroke-width="3.009" stroke-linecap="round" stroke-linejoin="round"/>
<path d="M277.808 614.423L271.557 603.365C269.731 607.365 267.904 611.365 266.076 615.365L277.715 614.383L277.544 613.566" stroke="url(#paint38_linear_1_2)" stroke-width="3.009" stroke-linecap="round" stroke-linejoin="round"/>
<path d="M284.183 655.4C280.745 651.933 277.306 648.467 273.866 645" stroke="url(#paint39_linear_1_2)" stroke-width="3.009" stroke-linecap="round" stroke-linejoin="round"/>
<path d="M283.445 643.104C280.619 647.806 277.793 652.509 274.969 657.213" stroke="url(#paint40_linear_1_2)" stroke-width="3.009" stroke-linecap="round" stroke-linejoin="round"/>
<path d="M250.5 586.811L249.924 587.475L240.771 578.007" stroke="url(#paint41_linear_1_2)" stroke-width="3.009" stroke-linecap="round" stroke-linejoin="round"/>
<path d="M249.833 576.583C246.539 580.516 243.243 584.448 239.946 588.377" stroke="url(#paint42_linear_1_2)" stroke-width="3.009" stroke-linecap="round" stroke-linejoin="round"/>
<path d="M219.483 656.656C222.083 658.798 226.457 657.674 228.183 654.784C230.483 650.943 228.508 644.089 223.225 645.034C218.344 645.907 215.34 653.241 219.483 656.656Z" stroke="url(#paint43_linear_1_2)" stroke-width="3.009" stroke-linecap="round" stroke-linejoin="round"/>
<path d="M188.844 595.186C189.4 596.289 190.27 597.203 191.344 597.814C192.57 598.548 194.034 598.777 195.425 598.452C201.441 596.905 200.187 589.752 195.677 587.452C190.344 584.733 186.257 589.929 188.844 595.186Z" stroke="url(#paint44_linear_1_2)" stroke-width="3.009" stroke-linecap="round" stroke-linejoin="round"/>
<path d="M161.04 645.034C159.007 641.316 156.974 637.598 154.94 633.88C153.073 637.901 151.207 641.921 149.34 645.94L160.233 644.431" stroke="url(#paint45_linear_1_2)" stroke-width="3.009" stroke-linecap="round" stroke-linejoin="round"/>
<path d="M259.589 547.621C268.889 596.321 243.831 646.721 253.138 695.415" stroke="url(#paint46_linear_1_2)" stroke-width="3.009" stroke-linecap="round" stroke-linejoin="round"/>
<path d="M241.29 553.92L237.483 543.074" stroke="#fff" stroke-width="3.009" stroke-linecap="round" stroke-linejoin="round"/>
<path d="M248.7 551.66C247.3 547.63 245.9 543.598 244.5 539.565" stroke="#fff" stroke-width="3.009" stroke-linecap="round" stroke-linejoin="round"/>
<path d="M255.762 548.455L251.468 536.394" stroke="#fff" stroke-width="3.009" stroke-linecap="round" stroke-linejoin="round"/>
<path d="M265.745 545.343C264.483 540.77 263.221 536.197 261.96 531.622" stroke="#fff" stroke-width="3.009" stroke-linecap="round" stroke-linejoin="round"/>
<path d="M274.681 541.516L270.068 528.178" stroke="#fff" stroke-width="3.009" stroke-linecap="round" stroke-linejoin="round"/>
<path d="M312.581 815.6L310.193 832.218C310.193 830.456 320.162 831.358 320.152 827.848C320.143 824.793 314.238 818.269 312.581 815.6Z" stroke="#fff" stroke-width="3.009" stroke-linecap="round" stroke-linejoin="round"/>
<path d="M349.472 813.532L336.184 817.156C337.671 818.687 344.004 827.088 346.021 826.764C348.1 826.43 349.048 815.66 349.472 813.532Z" stroke="#fff" stroke-width="3.009" stroke-linecap="round" stroke-linejoin="round"/>
<path d="M315.174 755.146L303.207 755.833C306.385 759.411 309.876 765 313.9 767.447C314.186 766.454 315.044 755.146 315.174 755.146Z" stroke="#fff" stroke-width="3.009" stroke-linecap="round" stroke-linejoin="round"/>
<path d="M299.621 708.905L285.293 714.385C287.793 715.885 295.969 722.742 298.735 722.239C302.215 721.605 297.649 709.562 299.621 708.905Z" stroke="#fff" stroke-width="3.009" stroke-linecap="round" stroke-linejoin="round"/>
<path d="M285.951 747.168L276.6 744C277.435 746.123 279.293 754.4 281.379 755.308C284.373 756.61 284.968 746.824 285.951 747.168Z" stroke="#fff" stroke-width="3.009" stroke-linecap="round" stroke-linejoin="round"/>
<path d="M227.981 725.841C225.907 728.341 223.834 730.841 221.761 733.341C222.435 732.441 229.83 738.541 231.548 737.058C232.876 735.909 228.609 727.5 227.981 725.841Z" stroke="#fff" stroke-width="3.009" stroke-linecap="round" stroke-linejoin="round"/>
<path d="M229.384 713.691L236.423 705.269L223.353 705.685C225.525 708.409 227.697 711.133 229.869 713.859C229.828 713.478 229.786 713.095 229.745 712.714" stroke="#fff" stroke-width="3.009" stroke-linecap="round" stroke-linejoin="round"/>
<path d="M205.832 750.971L212.74 744.318L201.3 740.354C202.42 744.094 203.54 747.833 204.661 751.573" stroke="#fff" stroke-width="3.009" stroke-linecap="round" stroke-linejoin="round"/>
<path d="M205.739 763.755L199.962 769.455C201.928 771.346 204.589 775.004 207.141 775.774C207.2 771.85 206.237 767.669 205.739 763.755Z" stroke="#fff" stroke-width="3.009" stroke-linecap="round" stroke-linejoin="round"/>
<path d="M154.795 787.629L146.019 791.198C148.774 794.098 151.927 798.78 155.356 800.665C155.989 796.586 155.033 791.781 154.795 787.629Z" stroke="#fff" stroke-width="3.009" stroke-linecap="round" stroke-linejoin="round"/>
<path d="M111.638 783.948C108.89 781.112 106.142 778.276 103.395 775.438C102.821 779.732 102.247 784.026 101.674 788.32C105.606 787.835 109.417 786.632 112.916 784.772L111.784 783.81" stroke="#fff" stroke-width="3.009" stroke-linecap="round" stroke-linejoin="round"/>
<path d="M456.4 625.423C465.977 541.678 475.564 457.823 478.459 373.585C479.016 357.372 479.124 340.285 471.295 326.074C463.466 311.863 444.861 302.264 430.515 309.836C420.586 315.077 415.538 327.296 416.94 338.436C418.342 349.576 425.307 359.465 434.133 366.402C442.959 373.339 453.552 377.645 464.218 381.148C492.403 390.391 521.993 394.61 551.639 393.611C563.588 393.204 576.018 391.777 586.079 385.319C596.14 378.861 603.021 366.057 599.199 354.728C595.462 343.649 582.35 337.542 570.813 339.438C559.276 341.334 549.613 349.738 543.532 359.726C537.451 369.714 534.432 381.226 531.732 392.596C513.682 468.429 505.694 546.307 507.973 624.225" stroke="#fff" stroke-width="3.009" stroke-linecap="round" stroke-linejoin="round"/>
<path d="M246.982 349.611C225.61 351.011 204.236 352.409 182.862 353.805" stroke="#fff" stroke-width="3.009" stroke-linecap="round" stroke-linejoin="round"/>
<path d="M266.061 269.907C222.454 225.741 176.867 183.653 129.3 143.645" stroke="#fff" stroke-width="3.009" stroke-linecap="round" stroke-linejoin="round"/>
<path d="M340.887 186.529C333.983 176.848 328.195 166.419 323.632 155.438" stroke="#fff" stroke-width="3.009" stroke-linecap="round" stroke-linejoin="round"/>
<path d="M441.325 156.046C438.449 122.692 433.842 89.5094 427.525 56.6328" stroke="#fff" stroke-width="3.009" stroke-linecap="round" stroke-linejoin="round"/>
<path d="M550.324 166.654L560.607 141.688" stroke="#fff" stroke-width="3.009" stroke-linecap="round" stroke-linejoin="round"/>
<path d="M635.536 203.857L730.545 79.2568" stroke="#fff" stroke-width="3.009" stroke-linecap="round" stroke-linejoin="round"/>
<path d="M683.3 268.245C693.698 260.656 704.846 254.15 716.568 248.828" stroke="#fff" stroke-width="3.009" stroke-linecap="round" stroke-linejoin="round"/>
<path d="M720.239 369.957L882.019 350.065" stroke="#fff" stroke-width="3.009" stroke-linecap="round" stroke-linejoin="round"/>
<path d="M108.32 332.5C112.232 337.253 114.595 343.09 115.091 349.226C115.586 355.361 114.191 361.502 111.092 366.821C108.802 370.58 105.492 373.912 101.309 375.274C97.1259 376.636 92.0089 375.632 89.3189 372.148C86.6289 368.664 87.3729 362.769 91.2709 360.722C94.5709 358.988 98.8969 360.464 101.264 363.346C103.631 366.228 104.349 370.146 104.281 373.873C104.081 384.61 98.1639 394.395 91.4459 402.773C84.7279 411.151 76.9599 418.833 71.9219 428.316C68.425 434.999 66.3792 442.344 65.9184 449.872C65.4576 457.4 66.5922 464.941 69.2479 472" stroke="url(#paint47_linear_1_2)" stroke-width="3.009" stroke-linecap="round" stroke-linejoin="round"/>
<path d="M124.678 494.252C118.91 482.329 113.143 470.406 107.378 458.484" stroke="#fff" stroke-width="3.009" stroke-linecap="round" stroke-linejoin="round"/>
<path d="M100.037 486.5L132.985 460.846" stroke="#fff" stroke-width="3.009" stroke-linecap="round" stroke-linejoin="round"/>
<path d="M289.68 95.4889C279.094 90.5457 267.569 87.9361 255.886 87.8369" stroke="#fff" stroke-width="3.009" stroke-linecap="round" stroke-linejoin="round"/>
<path d="M277.522 78.8994C274.974 87.6114 272.423 96.3247 269.87 105.039" stroke="#fff" stroke-width="3.009" stroke-linecap="round" stroke-linejoin="round"/>
<path d="M766.8 150.379C762.319 156.935 757.776 163.615 755.419 171.198C753.062 178.781 753.178 187.537 757.619 194.121C762.06 200.705 771.506 204.085 778.419 200.184C785.332 196.283 786.551 184.594 779.742 180.508C773.761 176.92 765.358 180.95 762.557 187.338C759.756 193.726 761.398 201.282 764.672 207.438C768.263 214.192 773.627 219.8 778.783 225.451C783.939 231.102 789.039 237.026 791.926 244.11C794.813 251.194 795.163 259.728 791.039 266.17C786.915 272.612 777.608 275.816 771.123 271.761" stroke="#fff" stroke-width="3.009" stroke-linecap="round" stroke-linejoin="round"/>
<path d="M848.563 225.883C851.75 215.999 854.938 206.116 858.128 196.233" stroke="#fff" stroke-width="3.009" stroke-linecap="round" stroke-linejoin="round"/>
<path d="M865.5 215.937L833.217 200.15" stroke="#fff" stroke-width="3.009" stroke-linecap="round" stroke-linejoin="round"/>
<path d="M843.184 468.953C847.575 457.131 851.967 445.309 856.36 433.485" stroke="#fff" stroke-width="3.009" stroke-linecap="round" stroke-linejoin="round"/>
<path d="M862.32 458.387L832.149 441.357" stroke="#fff" stroke-width="3.009" stroke-linecap="round" stroke-linejoin="round"/>
<path d="M573.143 709.872L591.323 686.923" stroke="#fff" stroke-width="3.009" stroke-linecap="round" stroke-linejoin="round"/>
<path d="M588.591 707.762L571.42 689.546" stroke="#fff" stroke-width="3.009" stroke-linecap="round" stroke-linejoin="round"/>
<path d="M369.222 675.484L361.568 658.271" stroke="#fff" stroke-width="3.009" stroke-linecap="round" stroke-linejoin="round"/>
<path d="M355.651 674.109L371.051 658.909" stroke="#fff" stroke-width="3.009" stroke-linecap="round" stroke-linejoin="round"/>
<path d="M75.3501 206.592L88.7941 219.172L106.233 215.184L99.0541 231.91L108.55 247.813L90.6691 245.571L79.0991 259.387L75.2271 241.274L58.5801 233.912L74.0681 224.96L75.3501 206.592Z" stroke="#fff" stroke-width="3.009" stroke-linecap="round" stroke-linejoin="round"/>
<path d="M844.145 93.5264L841.367 111.728L854.516 123.858L836.659 127.391L828.91 144.214L820.651 128.197L802.714 126.463L815.466 113.031L812.129 95.1364L828.269 102.852L844.145 93.5264Z" fill="url(#paint48_linear_1_2)" stroke="#fff" stroke-width="3.009" stroke-linecap="round" stroke-linejoin="round"/>
<path d="M743.682 402.173L741.515 416.37L751.771 425.831L737.844 428.587L731.799 441.708L725.359 429.215L711.367 427.862L721.314 417.386L718.711 403.429L731.3 409.447L743.682 402.173Z" fill="url(#paint49_linear_1_2)" stroke="#fff" stroke-width="3.009" stroke-linecap="round" stroke-linejoin="round"/>
<path d="M193.599 397.55L201.886 408.888L214.091 408.076L207.985 419.938L213.335 433.307L201.274 429.3L192.375 438.374L191.028 424.037L180.178 416.275L191.406 411.421L193.599 397.55Z" fill="url(#paint50_linear_1_2)" stroke="#fff" stroke-width="3.009" stroke-linecap="round" stroke-linejoin="round"/>
<path d="M103.027 569.572L84.2607 567.899" stroke="#fff" stroke-width="3.009" stroke-linecap="round" stroke-linejoin="round"/>
<path d="M95.2338 580.767C93.3004 573.818 91.3648 566.869 89.4268 559.92" stroke="#fff" stroke-width="3.009" stroke-linecap="round" stroke-linejoin="round"/>
<g opacity="0.1">
<path d="M87.0591 774.536C91.2591 768.326 100.347 769.398 106.451 771.244C113.996 773.673 121.774 775.308 129.658 776.122C145.031 777.468 160.458 774.062 174.317 767.44C193.828 757.793 209.103 741.299 217.225 721.105C219.937 714.505 223.386 706.063 221.482 698.925C219.562 691.725 210.427 691.425 206.574 696.976C202.974 702.167 202.604 709.71 200.094 715.545C197.571 721.417 194.297 726.937 190.354 731.967C181.881 742.715 170.429 750.728 157.428 755.006C143.275 759.606 129.772 759.031 115.268 756.962C102.148 755.09 86.2481 757.133 79.9361 770.372C79.4294 771.314 79.308 772.416 79.5975 773.445C79.887 774.475 80.5648 775.352 81.4881 775.892C82.4114 776.432 83.5081 776.592 84.5473 776.339C85.5865 776.086 86.487 775.44 87.0591 774.536Z" fill="#fff"/>
</g>
<g opacity="0.1">
<path d="M257.835 724.036C257.796 725.889 257.358 727.283 257.565 729.111C257.883 730.728 258.318 732.32 258.865 733.874C259.81 737.368 260.61 740.903 261.612 744.381C263.612 751.329 265.966 758.227 268.366 765.047C272.959 778.102 277.848 791.076 282.678 804.047C287.417 816.773 292.557 829.378 297.94 841.847C303.08 853.752 308.101 866.265 316.398 876.375C323.852 885.459 335.898 892.425 347.54 886.68C350.285 885.325 353.491 882.666 351.525 879.307C350.337 877.278 348.236 877.267 346.238 876.723C343.329 875.93 340.968 874.301 338.426 872.771C327.96 866.471 323.541 854.871 318.576 844.161C312.843 831.787 307.761 819.133 302.79 806.437C297.031 791.726 290.89 777.152 284.851 762.554C281.943 755.526 278.815 748.579 275.576 741.698C273.9 738.139 272.01 734.711 270.176 731.23C269.417 729.786 268.729 728.29 267.923 726.872C266.566 724.484 265.314 723.685 263.436 721.72C261.425 719.615 257.892 721.266 257.836 724.04L257.835 724.036Z" fill="#fff"/>
</g>
<g opacity="0.1">
<path d="M556.247 490.892C550.234 503.917 550.36 519.121 555.76 532.332C561.605 546.632 574.254 557.379 586.813 565.7C613.905 583.65 645.387 596.074 677.839 598.9L669.609 588.1C664.798 605.62 657.191 622.249 647.083 637.345C642.271 644.506 636.956 651.315 631.177 657.72C625.465 664.141 619.792 671.084 618.477 679.849C617.786 684.476 619.635 689.171 624.534 690.517C628.611 691.637 634.523 689.124 635.201 684.46C636.38 676.355 642.601 671.008 647.656 665.05C653.556 658.119 658.934 650.761 663.746 643.035C673.466 627.341 680.977 610.381 686.065 592.635C687.729 586.824 683.195 582.417 677.834 581.83C650.622 578.85 624.496 566.65 601.246 552.741C581.546 540.957 554.435 519.947 562.325 493.462C563.377 489.934 557.851 487.414 556.242 490.898L556.247 490.892Z" fill="#fff"/>
</g>
<g opacity="0.1">
<path d="M688.855 681.901C677.379 689.557 686.814 707.439 694.197 714.53C704.207 724.143 718.534 728.976 732.183 729.762C760.118 731.371 787.002 716.862 802.255 693.721C810.913 680.583 814.855 666.646 815.318 651.021C815.497 645.044 806.765 644.107 805.097 649.637C797.745 674.022 781.363 699.991 756.163 708.574C743.724 712.886 730.24 713.147 717.644 709.32C711.455 707.503 705.702 704.444 700.736 700.33C695.261 695.586 694.936 688.914 691.998 682.723C691.688 682.199 691.184 681.819 690.596 681.665C690.007 681.51 689.381 681.594 688.855 681.899V681.901Z" fill="#fff"/>
</g>
<g opacity="0.1">
<path d="M745.991 503.626C736.083 504.504 729.232 513.126 726.381 522.166C724.917 527.093 724.493 532.27 725.137 537.37C725.78 542.469 727.477 547.379 730.12 551.787C742.402 572.642 766.731 579.104 782.774 595.887C810.841 625.241 803.046 677.494 840.846 699.787C850.883 705.705 862.568 707.278 873.963 705.339C885.644 703.352 898.202 697.896 904.522 687.394C905.796 685.276 903.65 682.068 901.134 682.987C892.445 686.16 884.561 691.281 875.559 693.609C866.465 695.961 856.696 695.539 848.252 691.184C832.978 683.307 824.707 666.59 819.66 650.926C813.81 632.77 810.909 613.476 802.408 596.254C798.042 587.335 791.756 579.493 784 573.292C775.823 566.813 766.52 561.952 758.136 555.761C750.815 550.355 742.891 543.022 740.975 533.694C740.179 529.812 740.517 525.783 741.949 522.087C743.53 518.124 746.731 515.733 749.902 513.069C753.458 510.08 750.659 503.213 745.99 503.626H745.991Z" fill="#fff"/>
</g>
</g>
</g>
<defs>
<linearGradient id="paint0_linear_1_2" x1="472.786" y1="716.754" x2="472.786" y2="735.987" gradientUnits="userSpaceOnUse">
<stop stop-color="#D5FF93"/>
<stop offset="1" stop-color="#B9F854"/>
</linearGradient>
<linearGradient id="paint1_linear_1_2" x1="474.444" y1="684.367" x2="474.444" y2="707.515" gradientUnits="userSpaceOnUse">
<stop stop-color="#D5FF93"/>
<stop offset="1" stop-color="#B9F854"/>
</linearGradient>
<linearGradient id="paint2_linear_1_2" x1="475.444" y1="654.903" x2="475.444" y2="678.053" gradientUnits="userSpaceOnUse">
<stop stop-color="#D5FF93"/>
<stop offset="1" stop-color="#B9F854"/>
</linearGradient>
<linearGradient id="paint3_linear_1_2" x1="487.027" y1="252.71" x2="487.027" y2="547.178" gradientUnits="userSpaceOnUse">
<stop stop-color="#D5FF93"/>
<stop offset="1" stop-color="#B9F854"/>
</linearGradient>
<linearGradient id="paint4_linear_1_2" x1="860.358" y1="740.214" x2="860.358" y2="809.982" gradientUnits="userSpaceOnUse">
<stop stop-color="#D5FF93"/>
<stop offset="1" stop-color="#B9F854"/>
</linearGradient>
<linearGradient id="paint5_linear_1_2" x1="792.332" y1="467.628" x2="792.332" y2="705.456" gradientUnits="userSpaceOnUse">
<stop stop-color="#D5FF93"/>
<stop offset="1" stop-color="#B9F854"/>
</linearGradient>
<linearGradient id="paint6_linear_1_2" x1="596.024" y1="859.466" x2="596.024" y2="905.737" gradientUnits="userSpaceOnUse">
<stop stop-color="#D5FF93"/>
<stop offset="1" stop-color="#B9F854"/>
</linearGradient>
<linearGradient id="paint7_linear_1_2" x1="585.767" y1="860.666" x2="585.767" y2="865.073" gradientUnits="userSpaceOnUse">
<stop stop-color="#D5FF93"/>
<stop offset="1" stop-color="#B9F854"/>
</linearGradient>
<linearGradient id="paint8_linear_1_2" x1="255.4" y1="526.383" x2="255.4" y2="555.466" gradientUnits="userSpaceOnUse">
<stop stop-color="#D5FF93"/>
<stop offset="1" stop-color="#B9F854"/>
</linearGradient>
<linearGradient id="paint9_linear_1_2" x1="225.884" y1="686.154" x2="225.884" y2="884.833" gradientUnits="userSpaceOnUse">
<stop stop-color="#D5FF93"/>
<stop offset="1" stop-color="#B9F854"/>
</linearGradient>
<linearGradient id="paint10_linear_1_2" x1="592.549" y1="509.627" x2="592.549" y2="522.069" gradientUnits="userSpaceOnUse">
<stop stop-color="#D5FF93"/>
<stop offset="1" stop-color="#B9F854"/>
</linearGradient>
<linearGradient id="paint11_linear_1_2" x1="591.88" y1="514.875" x2="591.88" y2="517.565" gradientUnits="userSpaceOnUse">
<stop stop-color="#D5FF93"/>
<stop offset="1" stop-color="#B9F854"/>
</linearGradient>
<linearGradient id="paint12_linear_1_2" x1="612.708" y1="524.451" x2="612.708" y2="537.831" gradientUnits="userSpaceOnUse">
<stop stop-color="#D5FF93"/>
<stop offset="1" stop-color="#B9F854"/>
</linearGradient>
<linearGradient id="paint13_linear_1_2" x1="611.026" y1="553.12" x2="611.026" y2="567.3" gradientUnits="userSpaceOnUse">
<stop stop-color="#D5FF93"/>
<stop offset="1" stop-color="#B9F854"/>
</linearGradient>
<linearGradient id="paint14_linear_1_2" x1="610.139" y1="559.365" x2="610.139" y2="563.208" gradientUnits="userSpaceOnUse">
<stop stop-color="#D5FF93"/>
<stop offset="1" stop-color="#B9F854"/>
</linearGradient>
<linearGradient id="paint15_linear_1_2" x1="639.757" y1="564.805" x2="639.757" y2="576.463" gradientUnits="userSpaceOnUse">
<stop stop-color="#D5FF93"/>
<stop offset="1" stop-color="#B9F854"/>
</linearGradient>
<linearGradient id="paint16_linear_1_2" x1="673.378" y1="573.592" x2="673.378" y2="580.909" gradientUnits="userSpaceOnUse">
<stop stop-color="#D5FF93"/>
<stop offset="1" stop-color="#B9F854"/>
</linearGradient>
<linearGradient id="paint17_linear_1_2" x1="673.835" y1="568.617" x2="673.835" y2="584.239" gradientUnits="userSpaceOnUse">
<stop stop-color="#D5FF93"/>
<stop offset="1" stop-color="#B9F854"/>
</linearGradient>
<linearGradient id="paint18_linear_1_2" x1="691.429" y1="591.237" x2="691.429" y2="605.825" gradientUnits="userSpaceOnUse">
<stop stop-color="#D5FF93"/>
<stop offset="1" stop-color="#B9F854"/>
</linearGradient>
<linearGradient id="paint19_linear_1_2" x1="749.868" y1="603.983" x2="749.868" y2="615.868" gradientUnits="userSpaceOnUse">
<stop stop-color="#D5FF93"/>
<stop offset="1" stop-color="#B9F854"/>
</linearGradient>
<linearGradient id="paint20_linear_1_2" x1="700.259" y1="615.8" x2="700.259" y2="631.1" gradientUnits="userSpaceOnUse">
<stop stop-color="#D5FF93"/>
<stop offset="1" stop-color="#B9F854"/>
</linearGradient>
<linearGradient id="paint21_linear_1_2" x1="698.854" y1="622.012" x2="698.854" y2="624.59" gradientUnits="userSpaceOnUse">
<stop stop-color="#D5FF93"/>
<stop offset="1" stop-color="#B9F854"/>
</linearGradient>
<linearGradient id="paint22_linear_1_2" x1="748.915" y1="635.861" x2="748.915" y2="650.154" gradientUnits="userSpaceOnUse">
<stop stop-color="#D5FF93"/>
<stop offset="1" stop-color="#B9F854"/>
</linearGradient>
<linearGradient id="paint23_linear_1_2" x1="749.003" y1="639.787" x2="749.003" y2="646.187" gradientUnits="userSpaceOnUse">
<stop stop-color="#D5FF93"/>
<stop offset="1" stop-color="#B9F854"/>
</linearGradient>
<linearGradient id="paint24_linear_1_2" x1="721.554" y1="643.89" x2="721.554" y2="655.228" gradientUnits="userSpaceOnUse">
<stop stop-color="#D5FF93"/>
<stop offset="1" stop-color="#B9F854"/>
</linearGradient>
<linearGradient id="paint25_linear_1_2" x1="671.535" y1="629.467" x2="671.535" y2="644.849" gradientUnits="userSpaceOnUse">
<stop stop-color="#D5FF93"/>
<stop offset="1" stop-color="#B9F854"/>
</linearGradient>
<linearGradient id="paint26_linear_1_2" x1="645.896" y1="666.788" x2="645.896" y2="681.425" gradientUnits="userSpaceOnUse">
<stop stop-color="#D5FF93"/>
<stop offset="1" stop-color="#B9F854"/>
</linearGradient>
<linearGradient id="paint27_linear_1_2" x1="644.786" y1="670.201" x2="644.786" y2="678.539" gradientUnits="userSpaceOnUse">
<stop stop-color="#D5FF93"/>
<stop offset="1" stop-color="#B9F854"/>
</linearGradient>
<linearGradient id="paint28_linear_1_2" x1="746.152" y1="693.399" x2="746.152" y2="704.099" gradientUnits="userSpaceOnUse">
<stop stop-color="#D5FF93"/>
<stop offset="1" stop-color="#B9F854"/>
</linearGradient>
<linearGradient id="paint29_linear_1_2" x1="745.57" y1="694.835" x2="745.57" y2="705.37" gradientUnits="userSpaceOnUse">
<stop stop-color="#D5FF93"/>
<stop offset="1" stop-color="#B9F854"/>
</linearGradient>
<linearGradient id="paint30_linear_1_2" x1="778.97" y1="673.323" x2="778.97" y2="686.228" gradientUnits="userSpaceOnUse">
<stop stop-color="#D5FF93"/>
<stop offset="1" stop-color="#B9F854"/>
</linearGradient>
<linearGradient id="paint31_linear_1_2" x1="796.406" y1="635.252" x2="796.406" y2="647.358" gradientUnits="userSpaceOnUse">
<stop stop-color="#D5FF93"/>
<stop offset="1" stop-color="#B9F854"/>
</linearGradient>
<linearGradient id="paint32_linear_1_2" x1="796.436" y1="639.053" x2="796.436" y2="643.2" gradientUnits="userSpaceOnUse">
<stop stop-color="#D5FF93"/>
<stop offset="1" stop-color="#B9F854"/>
</linearGradient>
<linearGradient id="paint33_linear_1_2" x1="395.922" y1="452.875" x2="395.922" y2="467.613" gradientUnits="userSpaceOnUse">
<stop stop-color="#D5FF93"/>
<stop offset="1" stop-color="#B9F854"/>
</linearGradient>
<linearGradient id="paint34_linear_1_2" x1="389.108" y1="490.499" x2="389.108" y2="504.583" gradientUnits="userSpaceOnUse">
<stop stop-color="#D5FF93"/>
<stop offset="1" stop-color="#B9F854"/>
</linearGradient>
<linearGradient id="paint35_linear_1_2" x1="389.908" y1="494.288" x2="389.908" y2="499.638" gradientUnits="userSpaceOnUse">
<stop stop-color="#D5FF93"/>
<stop offset="1" stop-color="#B9F854"/>
</linearGradient>
<linearGradient id="paint36_linear_1_2" x1="335.325" y1="530.074" x2="335.325" y2="543.249" gradientUnits="userSpaceOnUse">
<stop stop-color="#D5FF93"/>
<stop offset="1" stop-color="#B9F854"/>
</linearGradient>
<linearGradient id="paint37_linear_1_2" x1="291.04" y1="550.496" x2="291.04" y2="562.328" gradientUnits="userSpaceOnUse">
<stop stop-color="#D5FF93"/>
<stop offset="1" stop-color="#B9F854"/>
</linearGradient>
<linearGradient id="paint38_linear_1_2" x1="271.942" y1="603.365" x2="271.942" y2="615.365" gradientUnits="userSpaceOnUse">
<stop stop-color="#D5FF93"/>
<stop offset="1" stop-color="#B9F854"/>
</linearGradient>
<linearGradient id="paint39_linear_1_2" x1="279.025" y1="645" x2="279.025" y2="655.4" gradientUnits="userSpaceOnUse">
<stop stop-color="#D5FF93"/>
<stop offset="1" stop-color="#B9F854"/>
</linearGradient>
<linearGradient id="paint40_linear_1_2" x1="279.207" y1="643.104" x2="279.207" y2="657.213" gradientUnits="userSpaceOnUse">
<stop stop-color="#D5FF93"/>
<stop offset="1" stop-color="#B9F854"/>
</linearGradient>
<linearGradient id="paint41_linear_1_2" x1="245.636" y1="578.007" x2="245.636" y2="587.475" gradientUnits="userSpaceOnUse">
<stop stop-color="#D5FF93"/>
<stop offset="1" stop-color="#B9F854"/>
</linearGradient>
<linearGradient id="paint42_linear_1_2" x1="244.89" y1="576.583" x2="244.89" y2="588.377" gradientUnits="userSpaceOnUse">
<stop stop-color="#D5FF93"/>
<stop offset="1" stop-color="#B9F854"/>
</linearGradient>
<linearGradient id="paint43_linear_1_2" x1="223.329" y1="644.945" x2="223.329" y2="657.769" gradientUnits="userSpaceOnUse">
<stop stop-color="#D5FF93"/>
<stop offset="1" stop-color="#B9F854"/>
</linearGradient>
<linearGradient id="paint44_linear_1_2" x1="193.777" y1="586.705" x2="193.777" y2="598.596" gradientUnits="userSpaceOnUse">
<stop stop-color="#D5FF93"/>
<stop offset="1" stop-color="#B9F854"/>
</linearGradient>
<linearGradient id="paint45_linear_1_2" x1="155.19" y1="633.88" x2="155.19" y2="645.94" gradientUnits="userSpaceOnUse">
<stop stop-color="#D5FF93"/>
<stop offset="1" stop-color="#B9F854"/>
</linearGradient>
<linearGradient id="paint46_linear_1_2" x1="256.362" y1="547.621" x2="256.362" y2="695.415" gradientUnits="userSpaceOnUse">
<stop stop-color="#D5FF93"/>
<stop offset="1" stop-color="#B9F854"/>
</linearGradient>
<linearGradient id="paint47_linear_1_2" x1="90.5034" y1="332.5" x2="90.5034" y2="472" gradientUnits="userSpaceOnUse">
<stop stop-color="#D5FF93"/>
<stop offset="1" stop-color="#B9F854"/>
</linearGradient>
<linearGradient id="paint48_linear_1_2" x1="828.615" y1="93.5264" x2="828.615" y2="144.214" gradientUnits="userSpaceOnUse">
<stop stop-color="#D5FF93"/>
<stop offset="1" stop-color="#B9F854"/>
</linearGradient>
<linearGradient id="paint49_linear_1_2" x1="731.569" y1="402.173" x2="731.569" y2="441.708" gradientUnits="userSpaceOnUse">
<stop stop-color="#B9F854"/>
<stop offset="1" stop-color="#D5FF93"/>
</linearGradient>
<linearGradient id="paint50_linear_1_2" x1="197.134" y1="397.55" x2="197.134" y2="438.374" gradientUnits="userSpaceOnUse">
<stop stop-color="#D5FF93"/>
<stop offset="1" stop-color="#B9F854"/>
</linearGradient>
<clipPath id="clip0_1_2">
<rect width="960" height="960" fill="white"/>
</clipPath>
</defs>
</svg>
