<svg width="301" height="301" viewBox="0 0 301 301" fill="none" xmlns="http://www.w3.org/2000/svg">
<path d="M184.484 58.2583C184.484 26.0831 210.568 0 242.743 0C274.918 0 301.001 26.0831 301.001 58.2583C301.001 90.4335 274.918 116.517 242.743 116.517C210.568 116.517 184.484 90.4335 184.484 58.2583Z" fill="#B9F854"/>
<path d="M246.269 142.336V184.26C246.269 202.835 246.259 215.974 245.406 226.239C244.567 236.349 242.978 242.506 240.468 247.336C235.58 256.746 227.908 264.419 218.497 269.307C213.667 271.816 207.51 273.405 197.4 274.245C187.135 275.098 173.996 275.108 155.421 275.108H116.74C98.166 275.108 85.0268 275.098 74.7618 274.245C64.6517 273.405 58.4947 271.816 53.6643 269.307C44.2541 264.419 36.5815 256.746 31.6933 247.336C29.1841 242.506 27.5951 236.349 26.7555 226.239C25.903 215.974 25.8926 202.835 25.8926 184.26V145.579C25.8926 127.005 25.903 113.866 26.7555 103.601C27.5951 93.4906 29.1841 87.3336 31.6933 82.5032C36.5815 73.093 44.2541 65.4203 53.6643 60.5322C58.4947 58.0229 64.6517 56.4339 74.7618 55.5943C85.0268 54.7419 98.1659 54.7315 116.74 54.7315H158.665C159.039 45.6558 160.85 36.951 163.877 28.8389L116.164 28.8389C98.2954 28.8388 84.0812 28.8387 72.6189 29.7906C60.8787 30.7655 50.8708 32.8057 41.7285 37.5547C27.5892 44.8995 16.0606 56.4281 8.71586 70.5673C3.96681 79.7097 1.92668 89.7176 0.951707 101.458C-0.00018761 112.92 -0.000102766 127.134 2.19772e-06 145.003V184.836C-0.000102766 202.705 -0.00018761 216.919 0.951707 228.382C1.92668 240.122 3.96681 250.13 8.71586 259.272C16.0606 273.411 27.5892 284.94 41.7285 292.285C50.8708 297.034 60.8787 299.074 72.6189 300.049C84.0811 301.001 98.2951 301.001 116.164 301H155.997C173.865 301.001 188.081 301.001 199.543 300.049C211.283 299.074 221.291 297.034 230.433 292.285C244.572 284.94 256.101 273.411 263.446 259.272C268.195 250.13 270.235 240.122 271.21 228.382C272.162 216.919 272.162 202.705 272.162 184.837V137.123C264.049 140.15 255.345 141.962 246.269 142.336Z" fill="#FAFAFA"/>
</svg>
